Source-HROTd_VROTn.ufo
<glyph name="quotesingle" format="2">
  <advance width="297"/>
  <unicode hex="0027"/>
  <outline>
    <contour>
      <point x="109.82927580078199" y="356.6687899886502" type="line"/>
      <point x="98.0" y="366.651803615609" type="line"/>
      <point x="199.0" y="366.651803615609" type="line"/>
      <point x="187.170724199218" y="356.6687899886502" type="line"/>
      <point x="221.170724199218" y="556.0729022832566" type="line"/>
      <point x="233.0" y="542.0559159102154" type="line"/>
      <point x="64.0" y="542.0559159102154" type="line"/>
      <point x="75.82927580078199" y="556.0729022832566" type="line"/>
    </contour>
    <contour>
      <point x="86.17072419921801" y="352.63481724256786" type="curve" smooth="yes"/>
      <point x="52.170724199218014" y="552.0389295371742" type="line" smooth="yes"/>
      <point x="50.92129678277002" y="559.3666049740376"/>
      <point x="56.56656901713728" y="566.0559159102154"/>
      <point x="64.0" y="566.0559159102154" type="curve" smooth="yes"/>
      <point x="233.0" y="566.0559159102154" type="line" smooth="yes"/>
      <point x="240.43343098286306" y="566.0559159102154"/>
      <point x="246.07870321723004" y="559.366604974038"/>
      <point x="244.829275800782" y="552.0389295371742" type="curve" smooth="yes"/>
      <point x="210.829275800782" y="352.63481724256786" type="line" smooth="yes"/>
      <point x="209.84614174847195" y="346.86890627293593"/>
      <point x="204.84912659074269" y="342.651803615609"/>
      <point x="199.0" y="342.651803615609" type="curve" smooth="yes"/>
      <point x="98.0" y="342.651803615609" type="line" smooth="yes"/>
      <point x="92.15087340925722" y="342.651803615609"/>
      <point x="87.15385825152808" y="346.8689062729359"/>
    </contour>
  </outline>
</glyph>
<glyph name="comma" format="2">
  <advance width="274"/>
  <unicode hex="002C"/>
  <outline>
    <contour>
      <point x="60.0" y="175.06749647439727" type="line"/>
      <point x="71.21232808622692" y="191.3434406843709" type="line"/>
      <point x="96.32395789486115" y="125.4960352066415"/>
      <point x="95.56672166487543" y="62.53229631201905"/>
      <point x="34.880282960676006" y="-25.510863821124744" type="curve"/>
      <point x="22.441312258934023" y="-6.976536717737778" type="line"/>
      <point x="175.89284759169732" y="26.513161188831358"/>
      <point x="224.5685417867784" y="111.20374727099312"/>
      <point x="215.09622479092886" y="185.55087662357664" type="curve"/>
      <point x="227.0" y="175.06749647439727" type="line"/>
    </contour>
    <contour>
      <point x="60.0" y="199.06749647439727" type="curve" smooth="yes"/>
      <point x="227.0" y="199.06749647439727" type="line" smooth="yes"/>
      <point x="233.04105042344213" y="199.06749647439727"/>
      <point x="238.1402771264044" y="194.57672518082782"/>
      <point x="238.90377520907114" y="188.5841163252179" type="curve" smooth="yes"/>
      <point x="249.42126171370566" y="106.03357140925542"/>
      <point x="197.9419691161457" y="6.760313158287096"/>
      <point x="27.558687741065977" y="-30.42461698403836" type="curve" smooth="yes"/>
      <point x="16.926269306547173" y="-32.74506611226708"/>
      <point x="8.943533752304592" y="-20.850622794585725"/>
      <point x="15.119717039323996" y="-11.890289880651395" type="curve" smooth="yes"/>
      <point x="70.43985538319899" y="68.36750581136072"/>
      <point x="71.6787636422731" y="122.76681430989356"/>
      <point x="48.78767191377308" y="182.79155226442364" type="curve" smooth="yes"/>
      <point x="45.7920668683708" y="190.64659080946916"/>
      <point x="51.59314088781129" y="199.06749647439727"/>
    </contour>
  </outline>
</glyph>
<glyph name="slash" format="2">
  <advance width="490"/>
  <unicode hex="002F"/>
  <outline>
    <contour>
      <point x="25.0" y="8.190296114372046" type="line" smooth="yes"/>
      <point x="16.019848823040412" y="8.190296114372048"/>
      <point x="10.221543908496269" y="17.6922267173086"/>
      <point x="14.328432498401352" y="25.678250838932332" type="curve" smooth="yes"/>
      <point x="314.32843249840136" y="609.041345317834" type="line" smooth="yes"/>
      <point x="316.38471108754703" y="613.0398687874165"/>
      <point x="320.50372692410923" y="615.5533905932738"/>
      <point x="325.0" y="615.5533905932738" type="curve" smooth="yes"/>
      <point x="466.0" y="615.5533905932738" type="line" smooth="yes"/>
      <point x="474.9801511769595" y="615.5533905932738"/>
      <point x="480.7784560915037" y="606.0514599903372"/>
      <point x="476.67156750159864" y="598.0654358687135" type="curve" smooth="yes"/>
      <point x="176.67156750159864" y="14.70234138981176" type="line" smooth="yes"/>
      <point x="174.61528891245294" y="10.703817920229282"/>
      <point x="170.49627307589085" y="8.190296114372046"/>
      <point x="166.0" y="8.190296114372046" type="curve" smooth="yes"/>
    </contour>
    <contour>
      <point x="25.0" y="32.190296114372046" type="line"/>
      <point x="166.0" y="32.190296114372046" type="line"/>
      <point x="155.32843249840136" y="25.678250838932332" type="line"/>
      <point x="455.32843249840136" y="609.041345317834" type="line"/>
      <point x="466.0" y="591.5533905932738" type="line"/>
      <point x="325.0" y="591.5533905932738" type="line"/>
      <point x="335.67156750159864" y="598.0654358687135" type="line"/>
      <point x="35.671567501598645" y="14.70234138981176" type="line"/>
    </contour>
  </outline>
</glyph>
<glyph name="one" format="2">
  <advance width="392"/>
  <unicode hex="0031"/>
  <outline>
    <contour>
      <point x="317.0" y="320.0035713374682" type="curve" smooth="yes"/>
      <point x="316.99999999999994" y="149.70565062586556"/>
      <point x="322.8343661274881" y="106.9700781244422"/>
      <point x="341.7979589711327" y="80.15150793363863" type="curve" smooth="yes"/>
      <point x="347.4180657970695" y="72.20347663841315"/>
      <point x="341.73431056648724" y="61.22330470336311"/>
      <point x="332.0" y="61.22330470336311" type="curve" smooth="yes"/>
      <point x="125.0" y="61.22330470336311" type="line" smooth="yes"/>
      <point x="114.4454777010062" y="61.22330470336311"/>
      <point x="109.03182951301149" y="73.86787607910557"/>
      <point x="116.31637934790064" y="81.50549839648774" type="curve" smooth="yes"/>
      <point x="143.7312003881343" y="110.24907950304942"/>
      <point x="149.99999999999994" y="150.21590619638292"/>
      <point x="150.0" y="320.0035713374682" type="curve" smooth="yes"/>
      <point x="150.00000000000003" y="376.2382733425607"/>
      <point x="149.01183065722182" y="417.01933065460423"/>
      <point x="147.0236337009315" y="448.65135053246905" type="curve"/>
      <point x="161.08893187146836" y="437.58732916059046" type="line"/>
      <point x="102.70803515476318" y="427.26694717055705"/>
      <point x="67.96391465175267" y="412.9693319893879"/>
      <point x="33.90839156700798" y="393.70461894132546" type="curve" smooth="yes"/>
      <point x="25.908854269466524" y="389.17939728576846"/>
      <point x="15.999999999999996" y="394.9585096688585"/>
      <point x="16.0" y="404.14927829866735" type="curve"/>
      <point x="16.0" y="518.7005768508881" type="line"/>
      <point x="16.000000000000004" y="524.6337578102804"/>
      <point x="20.336024502812858" y="529.6762825628416"/>
      <point x="26.20224579001987" y="530.5651493168684" type="curve" smooth="yes"/>
      <point x="320.20224579001984" y="575.1128765316209" type="line" smooth="yes"/>
      <point x="328.8986811156455" y="576.4305854725282"/>
      <point x="336.0109365342584" y="568.2541008712171"/>
      <point x="333.5010786085613" y="559.8240974656097" type="curve" smooth="yes"/>
      <point x="321.6607286382536" y="520.055236626384"/>
      <point x="317.00000000000006" y="485.35830851109114"/>
    </contour>
    <contour>
      <point x="293.0" y="320.0035713374682" type="curve" smooth="yes"/>
      <point x="293.00000000000006" y="489.7278755651292"/>
      <point x="298.34568529507936" y="525.8527412944619"/>
      <point x="310.4989213914387" y="566.6725106656714" type="curve"/>
      <point x="323.79775420998016" y="551.3837315996602" type="line"/>
      <point x="29.79775420998013" y="506.8360043849077" type="line"/>
      <point x="40.0" y="518.7005768508881" type="line"/>
      <point x="40.0" y="404.14927829866735" type="line"/>
      <point x="22.09160843299202" y="414.59393765600925" type="line"/>
      <point x="58.039655776355985" y="434.92922409353554"/>
      <point x="95.28584411133626" y="450.32699197994776"/>
      <point x="156.91106812853164" y="461.2208954286224" type="curve" smooth="yes"/>
      <point x="163.96128584760893" y="462.46720961812264"/>
      <point x="170.52724793466462" y="457.3023034798153"/>
      <point x="170.9763662990685" y="450.1568740567438" type="curve" smooth="yes"/>
      <point x="172.98775216190447" y="418.15592093487743"/>
      <point x="174.00000000000003" y="376.89415466523064"/>
      <point x="174.0" y="320.0035713374682" type="curve" smooth="yes"/>
      <point x="173.99999999999994" y="131.1985287357558"/>
      <point x="164.1690887814749" y="96.90416940344177"/>
      <point x="133.68362065209936" y="64.94111101023849" type="curve"/>
      <point x="125.0" y="85.22330470336311" type="line"/>
      <point x="332.0" y="85.22330470336311" type="line"/>
      <point x="322.2020410288673" y="66.2951014730876" type="line"/>
      <point x="301.233798738656" y="95.94867409902956"/>
      <point x="292.99999999999994" y="131.70338516273668"/>
    </contour>
  </outline>
</glyph>
<glyph name="four" format="2">
  <advance width="579"/>
  <unicode hex="0034"/>
  <outline>
    <contour>
      <point x="292.0" y="61.22330470336311" type="line" smooth="yes"/>
      <point x="282.36230402120003" y="61.22330470336311"/>
      <point x="276.65674552943807" y="72.01098212609291"/>
      <point x="282.08111624625343" y="79.97724763173188" type="curve" smooth="yes"/>
      <point x="294.26071691060616" y="97.86428701569466"/>
      <point x="301.20127181189804" y="120.42435535129086"/>
      <point x="304.0119488882872" y="183.36023466523397" type="curve"/>
      <point x="316.0" y="170.82485578727798" type="line"/>
      <point x="-5.000000000000001" y="170.82485578727798" type="line" smooth="yes"/>
      <point x="-14.884508063520165" y="170.82485578727798"/>
      <point x="-20.53018403401498" y="182.10590966452514"/>
      <point x="-14.605254574948923" y="190.01784435604569" type="curve" smooth="yes"/>
      <point x="263.3947454250511" y="561.248904478983" type="line" smooth="yes"/>
      <point x="265.660639422781" y="564.2746966764776"/>
      <point x="269.219828835705" y="566.0559159102154"/>
      <point x="273.0" y="566.0559159102154" type="curve" smooth="yes"/>
      <point x="486.0" y="566.0559159102154" type="line" smooth="yes"/>
      <point x="495.73431056648735" y="566.0559159102154"/>
      <point x="501.4180657970696" y="555.0757439751654"/>
      <point x="495.7979589711327" y="547.1277126799399" type="curve" smooth="yes"/>
      <point x="475.0005085268175" y="517.7156761988072"/>
      <point x="470.0545125662032" y="454.7503235449196"/>
      <point x="470.9998512227629" y="264.9089971666981" type="curve"/>
      <point x="458.6799146325181" y="276.8449727018825" type="line"/>
      <point x="509.73785092098245" y="278.2073656446359"/>
      <point x="527.6893202047115" y="282.0752951991108"/>
      <point x="549.8465378393281" y="290.2496528556309" type="curve" smooth="yes"/>
      <point x="557.6816351011656" y="293.1402182843795"/>
      <point x="566.0" y="287.3426723954116"/>
      <point x="566.0" y="278.99137802864846" type="curve" smooth="yes"/>
      <point x="566.0" y="167.97561338236048" type="line" smooth="yes"/>
      <point x="566.0" y="159.6934039390797"/>
      <point x="557.8085419474014" y="153.90116840228214"/>
      <point x="550.0" y="156.6619048833757" type="curve" smooth="yes"/>
      <point x="528.7852207209039" y="164.16246202818814"/>
      <point x="510.8470873294079" y="168.0515155133906"/>
      <point x="461.66737172786696" y="169.41525317608378" type="curve"/>
      <point x="473.98753246416624" y="181.95751096652464" type="line"/>
      <point x="476.7968042020172" y="120.37740298959184"/>
      <point x="483.745372889726" y="97.85534349600267"/>
      <point x="495.91888375374657" y="79.97724763173188" type="curve" smooth="yes"/>
      <point x="501.34325447056204" y="72.01098212609273"/>
      <point x="495.6376959788002" y="61.22330470336311"/>
      <point x="486.0" y="61.22330470336311" type="curve" smooth="yes"/>
    </contour>
    <contour>
      <point x="204.7435291932179" y="256.4304846845774" type="line"/>
      <point x="195.0" y="275.4350288425444" type="line"/>
      <point x="319.0" y="275.4350288425444" type="line"/>
      <point x="307.0" y="263.4350288425444" type="line"/>
      <point x="307.0" y="319.16154756756924"/>
      <point x="306.00103059246084" y="391.23456296447205"/>
      <point x="305.00344580050177" y="432.85310226544" type="curve"/>
      <point x="326.7435291932179" y="426.1361121693488" type="line"/>
    </contour>
    <contour>
      <point x="292.0" y="85.22330470336311" type="line"/>
      <point x="486.0" y="85.22330470336311" type="line"/>
      <point x="476.08111624625343" y="66.46936177499434" type="line"/>
      <point x="462.2844242725294" y="86.73127179185445"/>
      <point x="453.19631952976994" y="111.07275009187809"/>
      <point x="450.01246753583376" y="180.86377348328517" type="curve" smooth="yes"/>
      <point x="449.6946620708493" y="187.8301678643332"/>
      <point x="455.36166814184867" y="193.5993337513537"/>
      <point x="462.33262827213304" y="193.40603127372603" type="curve" smooth="yes"/>
      <point x="515.1097632081611" y="191.94253833235888"/>
      <point x="535.2333927726937" y="187.3385330588647"/>
      <point x="558.0" y="179.28932188134524" type="curve"/>
      <point x="542.0" y="167.97561338236048" type="line"/>
      <point x="542.0" y="278.99137802864846" type="line"/>
      <point x="558.1534621606719" y="267.733103201666" type="line"/>
      <point x="534.3282017469327" y="258.9433624005753"/>
      <point x="514.2217724078376" y="254.31846890813424"/>
      <point x="459.3200853674819" y="252.8535121079525" type="curve" smooth="yes"/>
      <point x="452.59315259051755" y="252.67401551236085"/>
      <point x="447.03365788886686" y="258.0602439446917"/>
      <point x="447.0001487772371" y="264.7894876431369" type="curve" smooth="yes"/>
      <point x="445.9484001267736" y="475.9998908515456"/>
      <point x="453.0635707186712" y="528.2613806152447"/>
      <point x="476.2020410288673" y="560.9841191404909" type="curve"/>
      <point x="486.0" y="542.0559159102154" type="line"/>
      <point x="273.0" y="542.0559159102154" type="line"/>
      <point x="282.6052545749489" y="546.8629273414477" type="line"/>
      <point x="4.605254574948923" y="175.63186721851028" type="line"/>
      <point x="-4.999999999999999" y="194.82485578727798" type="line"/>
      <point x="316.0" y="194.82485578727798" type="line" smooth="yes"/>
      <point x="322.83754471590385" y="194.82485578727798"/>
      <point x="328.2931075298774" y="189.12021320372844"/>
      <point x="327.9880511117128" y="182.289476909322" type="curve" smooth="yes"/>
      <point x="324.8057902482083" y="111.03319943318186"/>
      <point x="315.708680828933" y="86.72114589979205"/>
      <point x="301.91888375374657" y="66.46936177499434" type="curve"/>
    </contour>
    <contour>
      <point x="185.2564708067821" y="270.4395730005114" type="curve" smooth="yes"/>
      <point x="307.2564708067821" y="440.1452004852828" type="line" smooth="yes"/>
      <point x="313.974604155312" y="449.4903237265832"/>
      <point x="328.72075801790146" y="444.9342340529053"/>
      <point x="328.99655419949823" y="433.42821038919163" type="curve" smooth="yes"/>
      <point x="329.99872041358276" y="391.6185373637364"/>
      <point x="331.0" y="319.41747238510317"/>
      <point x="331.0" y="263.4350288425444" type="curve" smooth="yes"/>
      <point x="331.0" y="256.80761184457486"/>
      <point x="325.62741699796953" y="251.4350288425444"/>
      <point x="319.0" y="251.4350288425444" type="curve" smooth="yes"/>
      <point x="195.0" y="251.4350288425444" type="line" smooth="yes"/>
      <point x="185.2228177362411" y="251.4350288425444"/>
      <point x="179.54941206453282" y="262.5008845993158"/>
    </contour>
  </outline>
</glyph>
<glyph name="nine" format="2">
  <advance width="570"/>
  <unicode hex="0039"/>
  <outline>
    <contour>
      <point x="62.0" y="198.381204973382" type="line" smooth="yes"/>
      <point x="62.0" y="207.33786018531148"/>
      <point x="71.4568436457676" y="213.13769603133042"/>
      <point x="79.4402016604956" y="209.0771951516283" type="curve" smooth="yes"/>
      <point x="134.59853096888315" y="181.02252889885386"/>
      <point x="190.71243064307828" y="165.126370977443"/>
      <point x="242.0" y="165.126370977443" type="curve" smooth="yes"/>
      <point x="313.31759575891203" y="165.126370977443"/>
      <point x="365.63421542435617" y="190.73773170627948"/>
      <point x="373.04383576294447" y="277.1877126989328" type="curve"/>
      <point x="391.13948300215435" y="265.8524345023704" type="line"/>
      <point x="351.3794024718168" y="242.17696286992836"/>
      <point x="299.3158954346547" y="229.51471862576142"/>
      <point x="247.0" y="229.51471862576142" type="curve" smooth="yes"/>
      <point x="130.85491203410106" y="229.51471862576142"/>
      <point x="17.999999999999993" y="285.5199969374646"/>
      <point x="18.0" y="397.78531726798843" type="curve" smooth="yes"/>
      <point x="18.000000000000007" y="497.2937100526546"/>
      <point x="118.22824123646905" y="577.3696244092002"/>
      <point x="278.0" y="577.3696244092002" type="curve" smooth="yes"/>
      <point x="437.52525562470385" y="577.3696244092002"/>
      <point x="547.0" y="493.63598581690275"/>
      <point x="547.0" y="328.4888527117068" type="curve" smooth="yes"/>
      <point x="547.0" y="98.79702164194592"/>
      <point x="348.7513310248137" y="8.708639547760152"/>
      <point x="71.35400271710081" y="71.41815533188534" type="curve" smooth="yes"/>
      <point x="65.88408149962068" y="72.65470693466425"/>
      <point x="62.0" y="77.5148501045586"/>
      <point x="62.0" y="83.12279963997477" type="curve" smooth="yes"/>
    </contour>
    <contour>
      <point x="277.0" y="464.98127676088177" type="curve" smooth="yes"/>
      <point x="226.92421989533474" y="464.98127676088177"/>
      <point x="191.0" y="439.17176959604774"/>
      <point x="191.0" y="401.32085117392114" type="curve" smooth="yes"/>
      <point x="191.0" y="362.17069377420296"/>
      <point x="226.82394302037608" y="337.66042558696057"/>
      <point x="277.0" y="337.66042558696057" type="curve" smooth="yes"/>
      <point x="327.00070398508393" y="337.66042558696057"/>
      <point x="362.0" y="361.4053604024107"/>
      <point x="362.0" y="399.19953083036154" type="curve" smooth="yes"/>
      <point x="362.0" y="439.08035737754574"/>
      <point x="327.3261590051885" y="464.98127676088177"/>
    </contour>
    <contour>
      <point x="86.0" y="198.381204973382" type="line"/>
      <point x="86.0" y="83.12279963997477" type="line"/>
      <point x="76.64599728289919" y="94.8274439480642" type="line"/>
      <point x="337.21510798740064" y="35.92218029515155"/>
      <point x="523.0" y="112.73120095975935"/>
      <point x="523.0" y="328.4888527117068" type="curve" smooth="yes"/>
      <point x="523.0" y="480.09008852854936"/>
      <point x="424.44048274999636" y="553.3696244092002"/>
      <point x="278.0" y="553.3696244092002" type="curve" smooth="yes"/>
      <point x="135.96404264624184" y="553.3696244092002"/>
      <point x="42.00000000000001" y="486.2475708182072"/>
      <point x="42.0" y="397.78531726798843" type="curve" smooth="yes"/>
      <point x="41.99999999999999" y="299.46816092788407"/>
      <point x="145.28510943487018" y="253.51471862576142"/>
      <point x="247.0" y="253.51471862576142" type="curve" smooth="yes"/>
      <point x="294.689774434375" y="253.51471862576142"/>
      <point x="342.61628842772063" y="264.89153905212"/>
      <point x="378.86051699784565" y="286.4734673054341" type="curve" smooth="yes"/>
      <point x="387.257775385091" y="291.47368486248405"/>
      <point x="397.7907673978604" y="284.87572275985167"/>
      <point x="396.95616423705553" y="275.1381891088717" type="curve" smooth="yes"/>
      <point x="388.36747833460737" y="174.93174139768277"/>
      <point x="324.6661018110631" y="141.126370977443"/>
      <point x="242.0" y="141.126370977443" type="curve" smooth="yes"/>
      <point x="187.2634850695509" y="141.126370977443"/>
      <point x="127.4273710005534" y="157.74395071363745"/>
      <point x="68.5597983395044" y="187.68521479513572" type="curve"/>
    </contour>
    <contour>
      <point x="277.0" y="488.98127676088177" type="curve" smooth="yes"/>
      <point x="342.6114546388235" y="488.98127676088177"/>
      <point x="386.0" y="451.19314794089024"/>
      <point x="386.0" y="399.19953083036154" type="curve" smooth="yes"/>
      <point x="386.0" y="349.406209258126"/>
      <point x="342.87526870350797" y="313.66042558696057"/>
      <point x="277.0" y="313.66042558696057" type="curve" smooth="yes"/>
      <point x="211.25722400190708" y="313.66042558696057"/>
      <point x="167.0" y="350.02467161830225"/>
      <point x="167.0" y="401.32085117392114" type="curve" smooth="yes"/>
      <point x="167.0" y="451.0892885274799"/>
      <point x="211.15765247025692" y="488.98127676088177"/>
    </contour>
  </outline>
</glyph>
<glyph name="question" format="2">
  <advance width="523"/>
  <unicode hex="003F"/>
  <outline>
    <contour>
      <point x="500.0" y="433.84776310850236" type="curve" smooth="yes"/>
      <point x="500.0" y="365.51900314980537"/>
      <point x="437.9931750550383" y="334.96870131365705"/>
      <point x="377.7527458759759" y="308.98488690427047" type="curve" smooth="yes"/>
      <point x="343.9339375568058" y="294.3976462274169"/>
      <point x="298.0" y="276.6687729353608"/>
      <point x="298.0" y="254.94974746830584" type="curve" smooth="yes"/>
      <point x="298.0" y="248.3223304703363"/>
      <point x="292.62741699796953" y="242.94974746830584"/>
      <point x="286.0" y="242.94974746830584" type="curve" smooth="yes"/>
      <point x="179.0" y="242.94974746830584" type="line" smooth="yes"/>
      <point x="173.0749355159377" y="242.94974746830584"/>
      <point x="168.03675492955222" y="247.2742249020177"/>
      <point x="167.1386538236223" y="253.1308283155863" type="curve" smooth="yes"/>
      <point x="157.15467621757145" y="318.2373034579882"/>
      <point x="208.7261216260942" y="350.1268437192291"/>
      <point x="258.3597103378612" y="376.557354849792" type="curve" smooth="yes"/>
      <point x="285.08350860664933" y="390.78811401765904"/>
      <point x="323.0" y="408.20374070641685"/>
      <point x="323.0" y="427.48380207782344" type="curve" smooth="yes"/>
      <point x="323.0" y="448.43384258608637"/>
      <point x="277.6200310466481" y="460.0315292925759"/>
      <point x="229.0" y="460.0315292925759" type="curve" smooth="yes"/>
      <point x="166.03720373311305" y="460.0315292925759"/>
      <point x="103.97777398565708" y="440.7427551238192"/>
      <point x="50.70156175982966" y="411.97506822355956" type="curve" smooth="yes"/>
      <point x="42.70639047585503" y="407.6578959884841"/>
      <point x="33.0" y="413.447760537268"/>
      <point x="33.0" y="422.5340546095176" type="curve" smooth="yes"/>
      <point x="33.0" y="543.4493141924172" type="line" smooth="yes"/>
      <point x="33.0" y="549.1265656219979"/>
      <point x="36.97851812641462" y="554.0269799248185"/>
      <point x="42.53466687546244" y="555.193339591958" type="curve" smooth="yes"/>
      <point x="107.41675951954049" y="568.8135393737989"/>
      <point x="173.21438623886797" y="574.541197284454"/>
      <point x="231.0" y="574.541197284454" type="curve" smooth="yes"/>
      <point x="399.1322097703761" y="574.541197284454"/>
      <point x="500.0" y="523.9598882937057"/>
    </contour>
    <contour>
      <point x="152.0" y="61.22330470336311" type="line" smooth="yes"/>
      <point x="145.37258300203047" y="61.22330470336311"/>
      <point x="140.0" y="66.5958877053936"/>
      <point x="140.0" y="73.22330470336311" type="curve" smooth="yes"/>
      <point x="140.0" y="187.06749647439727" type="line" smooth="yes"/>
      <point x="140.0" y="193.6949134723668"/>
      <point x="145.37258300203047" y="199.06749647439727"/>
      <point x="152.0" y="199.06749647439727" type="curve" smooth="yes"/>
      <point x="313.0" y="199.06749647439727" type="line" smooth="yes"/>
      <point x="319.62741699796953" y="199.06749647439727"/>
      <point x="325.0" y="193.6949134723668"/>
      <point x="325.0" y="187.06749647439727" type="curve" smooth="yes"/>
      <point x="325.0" y="73.22330470336311" type="line" smooth="yes"/>
      <point x="325.0" y="66.5958877053936"/>
      <point x="319.62741699796953" y="61.22330470336311"/>
      <point x="313.0" y="61.22330470336311" type="curve" smooth="yes"/>
    </contour>
    <contour>
      <point x="476.0" y="433.84776310850236" type="curve" smooth="yes"/>
      <point x="476.0" y="511.7837308215761"/>
      <point x="376.41379914479495" y="550.541197284454"/>
      <point x="231.0" y="550.541197284454" type="curve" smooth="yes"/>
      <point x="174.7864584722181" y="550.541197284454"/>
      <point x="110.58229203292426" y="544.954947595812"/>
      <point x="47.46533312453756" y="531.7052887928764" type="curve"/>
      <point x="57.0" y="543.4493141924172" type="line"/>
      <point x="57.0" y="422.5340546095176" type="line"/>
      <point x="39.29843824017034" y="433.0930409954757" type="line"/>
      <point x="96.04372256527321" y="463.7339312601818"/>
      <point x="161.93739125215117" y="484.0315292925759"/>
      <point x="229.0" y="484.0315292925759" type="curve" smooth="yes"/>
      <point x="306.20915449937166" y="484.0315292925759"/>
      <point x="347.0" y="460.752701326749"/>
      <point x="347.0" y="427.48380207782344" type="curve" smooth="yes"/>
      <point x="347.0" y="395.3408145748269"/>
      <point x="314.1931931637931" y="379.0986516436783"/>
      <point x="269.6402896621388" y="355.37366937939566" type="curve" smooth="yes"/>
      <point x="229.93662122518" y="334.23096586381376"/>
      <point x="182.8748082926343" y="308.84964583783113"/>
      <point x="190.8613461763777" y="256.7686666210254" type="curve"/>
      <point x="179.0" y="266.9497474683059" type="line"/>
      <point x="286.0" y="266.9497474683059" type="line"/>
      <point x="274.0" y="254.94974746830584" type="line"/>
      <point x="274.0" y="290.2652843121836"/>
      <point x="313.2572467213743" y="307.30313281299163"/>
      <point x="368.2472541240241" y="331.02225577066594" type="curve" smooth="yes"/>
      <point x="417.56436404670495" y="352.2944586566912"/>
      <point x="476.0" y="377.9089689849248"/>
    </contour>
    <contour>
      <point x="152.0" y="85.22330470336311" type="line"/>
      <point x="313.0" y="85.22330470336311" type="line"/>
      <point x="301.0" y="73.22330470336311" type="line"/>
      <point x="301.0" y="187.06749647439727" type="line"/>
      <point x="313.0" y="175.06749647439727" type="line"/>
      <point x="152.0" y="175.06749647439727" type="line"/>
      <point x="164.0" y="187.06749647439727" type="line"/>
      <point x="164.0" y="73.22330470336311" type="line"/>
    </contour>
  </outline>
</glyph>
<glyph name="D" format="2">
  <advance width="691"/>
  <unicode hex="0044"/>
  <outline>
    <contour>
      <point x="57.0" y="61.22330470336311" type="line" smooth="yes"/>
      <point x="47.265689433512776" y="61.22330470336311"/>
      <point x="41.58193420293047" y="72.20347663841316"/>
      <point x="47.202041028867285" y="80.15150793363861" type="curve" smooth="yes"/>
      <point x="66.1656338725119" y="106.97007812444218"/>
      <point x="71.99999999999999" y="149.70565062586556"/>
      <point x="72.0" y="320.0035713374682" type="curve" smooth="yes"/>
      <point x="72.00000000000001" y="480.6737460140243"/>
      <point x="66.22093388983701" y="520.9018880733059"/>
      <point x="47.2857722151337" y="547.0107914582464" type="curve" smooth="yes"/>
      <point x="41.532188458449575" y="554.9441677346748"/>
      <point x="47.199888511421086" y="566.0559159102154"/>
      <point x="57.0" y="566.0559159102154" type="curve" smooth="yes"/>
      <point x="311.0" y="566.0559159102154" type="line" smooth="yes"/>
      <point x="516.8233588867064" y="566.0559159102154"/>
      <point x="666.0" y="465.7661772690303"/>
      <point x="666.0" y="314.34671708797583" type="curve" smooth="yes"/>
      <point x="666.0" y="162.19221098371233"/>
      <point x="516.8233588867064" y="61.22330470336311"/>
      <point x="311.0" y="61.22330470336311" type="curve" smooth="yes"/>
    </contour>
    <contour>
      <point x="301.0" y="453.66756826189703" type="curve" smooth="yes"/>
      <point x="231.0" y="453.66756826189703" type="line"/>
      <point x="242.95140587461924" y="464.58872739313244" type="line"/>
      <point x="239.97354082399508" y="431.5999197846412"/>
      <point x="238.99999999999994" y="385.98118655445086"/>
      <point x="239.0" y="320.0035713374682" type="curve" smooth="yes"/>
      <point x="239.00000000000006" y="246.93501128715118"/>
      <point x="239.976227602363" y="197.75535556028376"/>
      <point x="242.9570318890812" y="162.62624015147753" type="curve"/>
      <point x="231.0" y="173.61165235168156" type="line"/>
      <point x="301.0" y="173.61165235168156" type="line" smooth="yes"/>
      <point x="417.0585068819217" y="173.61165235168156"/>
      <point x="490.0" y="227.64821549759193"/>
      <point x="490.0" y="314.34671708797583" type="curve" smooth="yes"/>
      <point x="490.0" y="400.3403797150486"/>
      <point x="417.0004776284807" y="453.66756826189703"/>
    </contour>
    <contour>
      <point x="57.0" y="85.22330470336311" type="line"/>
      <point x="311.0" y="85.22330470336311" type="line" smooth="yes"/>
      <point x="501.1732237021527" y="85.22330470336311"/>
      <point x="642.0" y="173.76154209535468"/>
      <point x="642.0" y="314.34671708797583" type="curve" smooth="yes"/>
      <point x="642.0" y="454.1827836360709"/>
      <point x="501.07813709030165" y="542.0559159102154"/>
      <point x="311.0" y="542.0559159102154" type="curve" smooth="yes"/>
      <point x="57.0" y="542.0559159102154" type="line"/>
      <point x="66.71422778486631" y="561.1010403621843" type="line"/>
      <point x="87.71393816731573" y="532.1454170141365"/>
      <point x="96.00000000000001" y="498.19202271007055"/>
      <point x="96.0" y="320.0035713374682" type="curve" smooth="yes"/>
      <point x="95.99999999999999" y="131.70338516273668"/>
      <point x="87.76620126134407" y="95.94867409902957"/>
      <point x="66.79795897113272" y="66.29510147308761" type="curve"/>
    </contour>
    <contour>
      <point x="301.0" y="477.66756826189703" type="line" smooth="yes"/>
      <point x="432.8626116454979" y="477.66756826189703"/>
      <point x="514.0" y="412.09932268745126"/>
      <point x="514.0" y="314.34671708797583" type="curve" smooth="yes"/>
      <point x="514.0" y="215.89139602903376"/>
      <point x="432.7967132888535" y="149.61165235168156"/>
      <point x="301.0" y="149.61165235168156" type="curve" smooth="yes"/>
      <point x="231.0" y="149.61165235168156" type="line" smooth="yes"/>
      <point x="224.76588885158523" y="149.61165235168156"/>
      <point x="219.57005587039828" y="154.38527573507957"/>
      <point x="219.0429681109188" y="160.59706455188558" type="curve" smooth="yes"/>
      <point x="216.02438077726777" y="196.17145743902702"/>
      <point x="215.00000000000006" y="246.00883413221388"/>
      <point x="215.0" y="320.0035713374682" type="curve" smooth="yes"/>
      <point x="214.99999999999994" y="386.95032654388655"/>
      <point x="216.02698744974924" y="433.2730315274523"/>
      <point x="219.04859412538076" y="466.7464091306616" type="curve" smooth="yes"/>
      <point x="219.60683678186547" y="472.93062476184593"/>
      <point x="224.79063949858732" y="477.66756826189703"/>
      <point x="231.0" y="477.66756826189703" type="curve" smooth="yes"/>
    </contour>
  </outline>
</glyph>
<glyph name="L" format="2">
  <advance width="504"/>
  <unicode hex="004C"/>
  <outline>
    <contour>
      <point x="57.0" y="61.22330470336311" type="line" smooth="yes"/>
      <point x="47.265689433512776" y="61.22330470336311"/>
      <point x="41.58193420293047" y="72.20347663841316"/>
      <point x="47.202041028867285" y="80.15150793363861" type="curve" smooth="yes"/>
      <point x="66.1656338725119" y="106.97007812444218"/>
      <point x="71.99999999999999" y="149.70565062586556"/>
      <point x="72.0" y="320.0035713374682" type="curve" smooth="yes"/>
      <point x="72.00000000000001" y="480.6737460140243"/>
      <point x="66.22093388983701" y="520.9018880733059"/>
      <point x="47.2857722151337" y="547.0107914582464" type="curve" smooth="yes"/>
      <point x="41.532188458449575" y="554.9441677346748"/>
      <point x="47.199888511421086" y="566.0559159102154"/>
      <point x="57.0" y="566.0559159102154" type="curve" smooth="yes"/>
      <point x="254.0" y="566.0559159102154" type="line" smooth="yes"/>
      <point x="263.8001114885791" y="566.0559159102154"/>
      <point x="269.46781154155053" y="554.944167734675"/>
      <point x="263.7142277848663" y="547.0107914582464" type="curve" smooth="yes"/>
      <point x="244.77906611016292" y="520.9018880733059"/>
      <point x="239.00000000000003" y="480.6737460140243"/>
      <point x="239.0" y="320.0035713374682" type="curve" smooth="yes"/>
      <point x="239.0" y="250.48174759068758"/>
      <point x="239.97591535863685" y="202.00633249989397"/>
      <point x="242.955270086625" y="167.5965409484571" type="curve"/>
      <point x="231.10410996349123" y="178.5609481913013" type="line"/>
      <point x="388.5223475710231" y="177.1951628748016"/>
      <point x="439.29014637002507" y="185.4622292126096"/>
      <point x="473.091608432992" y="204.58322364360464" type="curve" smooth="yes"/>
      <point x="481.8688979939437" y="209.54840841879408"/>
      <point x="492.4847815606193" y="202.12946774901002"/>
      <point x="490.83914020685296" y="192.18031017545945" type="curve" smooth="yes"/>
      <point x="470.83914020685296" y="71.26505059255983" type="line" smooth="yes"/>
      <point x="469.8809597023326" y="65.4721183709921"/>
      <point x="464.8716414743171" y="61.22330470336311"/>
      <point x="459.0" y="61.22330470336311" type="curve" smooth="yes"/>
    </contour>
    <contour>
      <point x="57.0" y="85.22330470336311" type="line"/>
      <point x="459.0" y="85.22330470336311" type="line"/>
      <point x="447.16085979314704" y="75.1815588141664" type="line"/>
      <point x="467.16085979314704" y="196.09681839706604" type="line"/>
      <point x="484.908391567008" y="183.69390492892086" type="line"/>
      <point x="448.7435630466871" y="163.2359885391869"/>
      <point x="399.32066285971695" y="153.10057170654966"/>
      <point x="230.89589003650877" y="154.5618514486735" type="curve" smooth="yes"/>
      <point x="224.70985575180046" y="154.61552245224863"/>
      <point x="219.57836820642385" y="159.36305084816183"/>
      <point x="219.044729913375" y="165.5262586915177" type="curve" smooth="yes"/>
      <point x="216.02463328605714" y="200.406595173431"/>
      <point x="215.0" y="249.53105477196988"/>
      <point x="215.0" y="320.0035713374682" type="curve" smooth="yes"/>
      <point x="215.00000000000003" y="498.19202271007055"/>
      <point x="223.28606183268428" y="532.1454170141365"/>
      <point x="244.2857722151337" y="561.1010403621843" type="curve"/>
      <point x="254.0" y="542.0559159102154" type="line"/>
      <point x="57.0" y="542.0559159102154" type="line"/>
      <point x="66.71422778486631" y="561.1010403621843" type="line"/>
      <point x="87.71393816731573" y="532.1454170141365"/>
      <point x="96.00000000000001" y="498.19202271007055"/>
      <point x="96.0" y="320.0035713374682" type="curve" smooth="yes"/>
      <point x="95.99999999999999" y="131.70338516273668"/>
      <point x="87.76620126134407" y="95.94867409902957"/>
      <point x="66.79795897113272" y="66.29510147308761" type="curve"/>
    </contour>
  </outline>
</glyph>
<glyph name="S" format="2">
  <advance width="533"/>
  <unicode hex="0053"/>
  <outline>
    <contour>
      <point x="342.0" y="203.33095244168786" type="curve" smooth="yes"/>
      <point x="342.0" y="229.534945748582"/>
      <point x="271.5504030694476" y="248.46112952903601"/>
      <point x="219.42920501219885" y="264.70653684211595" type="curve" smooth="yes"/>
      <point x="129.28798423452605" y="292.80222346894914"/>
      <point x="35.99999999999999" y="328.1255243983963"/>
      <point x="36.0" y="414.04877323527904" type="curve" smooth="yes"/>
      <point x="36.00000000000001" y="513.3548933206661"/>
      <point x="140.21720103587043" y="573.1269837220809"/>
      <point x="303.0" y="573.1269837220809" type="curve" smooth="yes"/>
      <point x="357.74426566844085" y="573.1269837220809"/>
      <point x="414.47938550799194" y="566.7022739048203"/>
      <point x="476.3201300593788" y="554.5157793631732" type="curve" smooth="yes"/>
      <point x="481.9448800454953" y="553.4073518126773"/>
      <point x="486.0" y="548.4751319738791"/>
      <point x="486.0" y="542.7422074112308" type="curve" smooth="yes"/>
      <point x="486.0" y="426.7766952966369" type="line" smooth="yes"/>
      <point x="486.0" y="417.54384957907877"/>
      <point x="476.00927118884636" y="411.76975459128647"/>
      <point x="468.0092759653511" y="416.3790404869849" type="curve" smooth="yes"/>
      <point x="415.88452419607916" y="446.4112938114955"/>
      <point x="346.95111767383406" y="461.44574285494895"/>
      <point x="290.0" y="461.445742854949" type="curve" smooth="yes"/>
      <point x="240.19737866037195" y="461.44574285494906"/>
      <point x="211.0" y="446.9463415449806"/>
      <point x="211.0" y="425.36248173426384" type="curve" smooth="yes"/>
      <point x="211.0" y="398.88255343031597"/>
      <point x="279.61270276052034" y="379.1180502903774"/>
      <point x="331.64104347124066" y="362.55055160407335" type="curve" smooth="yes"/>
      <point x="421.74438494378467" y="333.85874688598835"/>
      <point x="515.0" y="299.1613783046268"/>
      <point x="515.0" y="214.64466094067262" type="curve" smooth="yes"/>
      <point x="515.0" y="109.42523385478032"/>
      <point x="403.51808626201694" y="51.49212110276484"/>
      <point x="241.95997532822366" y="52.0309832970549" type="curve" smooth="yes"/>
      <point x="181.25485315229108" y="52.23345963916672"/>
      <point x="117.54818863517505" y="59.16317326340294"/>
      <point x="49.76042514093763" y="72.04074595696136" type="curve" smooth="yes"/>
      <point x="44.09789022436572" y="73.11645197319784"/>
      <point x="40.0" y="78.0661016782191"/>
      <point x="40.0" y="83.82990642116133" type="curve" smooth="yes"/>
      <point x="40.0" y="201.20963209812822" type="line" smooth="yes"/>
      <point x="40.0" y="210.34217365174248"/>
      <point x="49.795867931500545" y="216.12757823870345"/>
      <point x="57.79353971639727" y="211.71843305516074" type="curve" smooth="yes"/>
      <point x="114.97219141430658" y="180.19563698200844"/>
      <point x="191.00657016332028" y="165.126370977443"/>
      <point x="254.0" y="165.126370977443" type="curve" smooth="yes"/>
      <point x="309.1698177106764" y="165.126370977443"/>
      <point x="342.0" y="180.38333348872024"/>
    </contour>
    <contour>
      <point x="366.0" y="203.33095244168786" type="curve" smooth="yes"/>
      <point x="366.0" y="170.2199521876359"/>
      <point x="333.60424355913284" y="141.126370977443"/>
      <point x="254.0" y="141.126370977443" type="curve" smooth="yes"/>
      <point x="187.0044035974528" y="141.126370977443"/>
      <point x="107.01784778745326" y="157.17529476893571"/>
      <point x="46.20646028360273" y="190.7008311410957" type="curve"/>
      <point x="64.0" y="201.20963209812822" type="line"/>
      <point x="64.0" y="83.82990642116133" type="line"/>
      <point x="54.23957485906237" y="95.61906688536129" type="line"/>
      <point x="120.4474577032436" y="83.04162251687995"/>
      <point x="182.74971311860762" y="76.22860717045047"/>
      <point x="242.04002467177634" y="76.03084979882105" type="curve" smooth="yes"/>
      <point x="384.3060392160524" y="75.55633461461188"/>
      <point x="491.0" y="121.98977374484252"/>
      <point x="491.0" y="214.64466094067262" type="curve" smooth="yes"/>
      <point x="491.0" y="285.40472464600765"/>
      <point x="399.7963182900428" y="315.6603031948281"/>
      <point x="324.35895652875934" y="339.6819878152793" type="curve" smooth="yes"/>
      <point x="242.39466230196385" y="365.7820578612664"/>
      <point x="187.0" y="383.6465898768474"/>
      <point x="187.0" y="425.36248173426384" type="curve" smooth="yes"/>
      <point x="187.0" y="457.03927403651215"/>
      <point x="216.9089353749593" y="485.44574285494906"/>
      <point x="290.0" y="485.445742854949" type="curve" smooth="yes"/>
      <point x="351.05590120050306" y="485.44574285494895"/>
      <point x="424.1090517494427" y="469.3711948163667"/>
      <point x="479.9907240346489" y="437.1743501062889" type="curve"/>
      <point x="462.0" y="426.7766952966369" type="line"/>
      <point x="462.0" y="542.7422074112308" type="line"/>
      <point x="471.6798699406212" y="530.9686354592883" type="line"/>
      <point x="411.52151848106513" y="542.8235933355988"/>
      <point x="356.25493407895135" y="549.1269837220809"/>
      <point x="303.0" y="549.1269837220809" type="curve" smooth="yes"/>
      <point x="159.94194322081484" y="549.1269837220809"/>
      <point x="60.00000000000001" y="501.3217569663576"/>
      <point x="60.0" y="414.04877323527904" type="curve" smooth="yes"/>
      <point x="59.99999999999999" y="341.7866349782023"/>
      <point x="150.76130865350635" y="311.2480617263285"/>
      <point x="226.57079498780115" y="287.61936496568853" type="curve" smooth="yes"/>
      <point x="310.0046778199759" y="261.61425647160314"/>
      <point x="366.0" y="245.27743465610502"/>
    </contour>
  </outline>
</glyph>
<glyph name="W" format="2">
  <advance width="934"/>
  <unicode hex="0057"/>
  <outline>
    <contour>
      <point x="578.0" y="61.22330470336311" type="line" smooth="yes"/>
      <point x="571.9916385923665" y="61.22330470336311"/>
      <point x="566.909391178054" y="65.66692972832968"/>
      <point x="566.1073847097882" y="71.62152395712471" type="curve" smooth="yes"/>
      <point x="562.1861249007883" y="100.7353926753745"/>
      <point x="528.6978372050004" y="190.6648077288057"/>
      <point x="456.15453073850273" y="343.85921217483457" type="curve"/>
      <point x="477.95438446425385" y="344.0958207691809" type="line"/>
      <point x="411.3639959834311" y="195.2006238765744"/>
      <point x="365.09333294347266" y="100.35191578568691"/>
      <point x="365.99320305807834" y="73.62713685624475" type="curve" smooth="yes"/>
      <point x="366.22156033104915" y="66.84527185370509"/>
      <point x="360.7857085080919" y="61.22330470336311"/>
      <point x="354.0" y="61.22330470336311" type="curve" smooth="yes"/>
      <point x="242.0" y="61.22330470336311" type="line" smooth="yes"/>
      <point x="236.19833727365878" y="61.22330470336311"/>
      <point x="231.2275268050008" y="65.37390271001095"/>
      <point x="230.19250526612373" y="71.08249455076097" type="curve" smooth="yes"/>
      <point x="225.26888567238515" y="98.23838801194181"/>
      <point x="211.9553729197721" y="135.84633736252317"/>
      <point x="135.10574826823077" y="302.2442201347189" type="curve" smooth="yes"/>
      <point x="53.73989446846346" y="478.42082299548196"/>
      <point x="32.801689187232604" y="518.0286210680263"/>
      <point x="6.319944604191921" y="545.7699857677568" type="curve" smooth="yes"/>
      <point x="-0.9695976632791883" y="553.4062594997195"/>
      <point x="4.443006915853799" y="566.0559159102154"/>
      <point x="15.000000000000002" y="566.0559159102154" type="curve" smooth="yes"/>
      <point x="234.0" y="566.0559159102154" type="line" smooth="yes"/>
      <point x="243.57360133915236" y="566.0559159102154"/>
      <point x="249.29246345788548" y="555.3954695635857"/>
      <point x="243.99774475870387" y="547.4192676793831" type="curve" smooth="yes"/>
      <point x="222.8116679983013" y="515.503610781255"/>
      <point x="234.32478680761773" y="475.67600910795545"/>
      <point x="319.99022762141936" y="280.27402809900707" type="curve"/>
      <point x="298.0157031849614" y="280.2875336283786" type="line"/>
      <point x="388.3704253674693" y="485.6987228055386"/>
      <point x="393.95939837087536" y="519.358071538666"/>
      <point x="391.044729913375" y="553.0207747817457" type="curve" smooth="yes"/>
      <point x="390.43780212658976" y="560.0304330926101"/>
      <point x="395.9641154803789" y="566.0559159102154"/>
      <point x="403.0" y="566.0559159102154" type="curve" smooth="yes"/>
      <point x="547.0" y="566.0559159102154" type="line" smooth="yes"/>
      <point x="554.0358845196213" y="566.0559159102154"/>
      <point x="559.5621978734102" y="560.0304330926103"/>
      <point x="558.955270086625" y="553.0207747817457" type="curve" smooth="yes"/>
      <point x="556.0289567963267" y="519.2235805814557"/>
      <point x="559.245316125755" y="485.861447907076"/>
      <point x="648.985590361573" y="281.6988053910384" type="curve"/>
      <point x="627.014409638427" y="281.6988053910384" type="line"/>
      <point x="711.8011100302332" y="474.5918731870987"/>
      <point x="723.1989303392475" y="515.4876449699003"/>
      <point x="702.0022552412961" y="547.4192676793831" type="curve" smooth="yes"/>
      <point x="696.7075365421146" y="555.3954695635855"/>
      <point x="702.4263986608478" y="566.0559159102154"/>
      <point x="712.0" y="566.0559159102154" type="curve" smooth="yes"/>
      <point x="919.0" y="566.0559159102154" type="line" smooth="yes"/>
      <point x="929.5569930841452" y="566.0559159102154"/>
      <point x="934.9695976632785" y="553.4062594997188"/>
      <point x="927.680055395808" y="545.7699857677568" type="curve" smooth="yes"/>
      <point x="901.1983108127673" y="518.0286210680263"/>
      <point x="880.2601055315367" y="478.42082299548196"/>
      <point x="798.8942517317693" y="302.2442201347189" type="curve" smooth="yes"/>
      <point x="725.6677030834194" y="143.69116651799987"/>
      <point x="704.0" y="99.09893340865801"/>
      <point x="704.0" y="73.22330470336311" type="curve" smooth="yes"/>
      <point x="704.0" y="66.5958877053936"/>
      <point x="698.6274169979695" y="61.22330470336311"/>
      <point x="692.0" y="61.22330470336311" type="curve" smooth="yes"/>
    </contour>
    <contour>
      <point x="578.0" y="85.22330470336311" type="line"/>
      <point x="692.0" y="85.22330470336311" type="line"/>
      <point x="680.0" y="73.22330470336311" type="line"/>
      <point x="680.0" y="102.35873247793195"/>
      <point x="694.6541547775431" y="133.77958852729566"/>
      <point x="777.1057482682307" y="312.3070784175018" type="curve" smooth="yes"/>
      <point x="861.6299643699107" y="495.3222937301636"/>
      <point x="882.8102633637693" y="533.5236502698842"/>
      <point x="910.319944604192" y="562.341846052674" type="curve"/>
      <point x="919.0" y="542.0559159102154" type="line"/>
      <point x="712.0" y="542.0559159102154" type="line"/>
      <point x="721.9977447587039" y="560.6925641410477" type="line"/>
      <point x="746.5176777103304" y="523.7546366474654"/>
      <point x="747.0653221680788" y="495.1765454505751"/>
      <point x="648.985590361573" y="272.0413099791392" type="curve" smooth="yes"/>
      <point x="644.7827310493345" y="262.47964025373875"/>
      <point x="631.2172689506655" y="262.47964025373875"/>
      <point x="627.014409638427" y="272.0413099791392" type="curve" smooth="yes"/>
      <point x="532.8537596779473" y="486.26048058744783"/>
      <point x="531.9742739364028" y="519.6290997420393"/>
      <point x="535.044729913375" y="555.0910570386851" type="curve"/>
      <point x="547.0" y="542.0559159102154" type="line"/>
      <point x="403.0" y="542.0559159102154" type="line"/>
      <point x="414.955270086625" y="555.0910570386851" type="line"/>
      <point x="418.03499142681454" y="519.5220902564054"/>
      <point x="415.45565836091845" y="487.6674417170858"/>
      <point x="319.9842968150386" y="270.6241546170528" type="curve" smooth="yes"/>
      <point x="315.7772837348603" y="261.05998864089327"/>
      <point x="302.2050260237509" y="261.0683301422389"/>
      <point x="298.00977237858064" y="270.6376601464243" type="curve" smooth="yes"/>
      <point x="198.86395653069977" y="496.78823663774443"/>
      <point x="199.4823222896697" y="523.7546366474654"/>
      <point x="224.00225524129613" y="560.6925641410477" type="curve"/>
      <point x="234.0" y="542.0559159102154" type="line"/>
      <point x="14.999999999999998" y="542.0559159102154" type="line"/>
      <point x="23.68005539580808" y="562.341846052674" type="line"/>
      <point x="51.189736636230634" y="533.5236502698842"/>
      <point x="72.37003563008928" y="495.3222937301637"/>
      <point x="156.89425173176923" y="312.3070784175018" type="curve" smooth="yes"/>
      <point x="236.0919051578896" y="140.82514977585993"/>
      <point x="248.7334410874849" y="103.3497172394132"/>
      <point x="253.80749473387627" y="75.36411485596525" type="curve"/>
      <point x="242.0" y="85.22330470336311" type="line"/>
      <point x="354.0" y="85.22330470336311" type="line"/>
      <point x="342.00679694192166" y="72.81947255048148" type="line"/>
      <point x="340.9185781725241" y="105.13792114321166"/>
      <point x="375.51742660032824" y="173.83415008927005"/>
      <point x="456.04561553574615" y="353.89407796305244" type="curve" smooth="yes"/>
      <point x="460.2297453502183" y="363.24973493942633"/>
      <point x="473.45926247468685" y="363.3933238593375"/>
      <point x="477.84546926149727" y="354.13068655739875" type="curve" smooth="yes"/>
      <point x="553.2811122104677" y="194.82834760338676"/>
      <point x="585.8150129686458" y="105.09973810149518"/>
      <point x="589.8926152902118" y="74.82508544960152" type="curve"/>
    </contour>
  </outline>
</glyph>
<glyph name="bracketright" format="2">
  <advance width="457"/>
  <unicode hex="005D"/>
  <outline>
    <contour>
      <point x="190.0" y="314.34671708797583" type="curve" smooth="yes"/>
      <point x="190.0" y="434.6686845107923"/>
      <point x="190.03704420962828" y="500.76639128908863"/>
      <point x="186.0566709188503" y="541.5773509997517" type="curve"/>
      <point x="196.1959476060498" y="530.8785909744151" type="line"/>
      <point x="97.20006718895254" y="545.9324959964498"/>
      <point x="26.157814609504406" y="587.9466307806424"/>
      <point x="3.80390612822438" y="645.9041651154766" type="curve" smooth="yes"/>
      <point x="0.530493848253986" y="654.3912225250267"/>
      <point x="7.521762786288495" y="663.2923019459458"/>
      <point x="16.54272574745715" y="662.1228581974555" type="curve" smooth="yes"/>
      <point x="135.77489721618554" y="646.6660474175809"/>
      <point x="262.08754584771526" y="642.4438076979087"/>
      <point x="371.383703027383" y="648.0644661633175" type="curve" smooth="yes"/>
      <point x="381.43976046704245" y="648.5816084475055"/>
      <point x="387.6227172279716" y="637.2302737390883"/>
      <point x="381.7339254325184" y="629.0624185394885" type="curve" smooth="yes"/>
      <point x="357.13052311049273" y="594.9370776267797"/>
      <point x="357.00000000000006" y="535.8268708547722"/>
      <point x="357.0" y="314.34671708797583" type="curve" smooth="yes"/>
      <point x="356.99999999999994" y="92.8665633211796"/>
      <point x="357.13052311049273" y="33.75635654917201"/>
      <point x="381.7339254325184" y="-0.36898436353678843" type="curve" smooth="yes"/>
      <point x="387.62271722797203" y="-8.536839563137189"/>
      <point x="381.4397604670432" y="-19.888174271553883"/>
      <point x="371.3837030273829" y="-19.371031987365885" type="curve" smooth="yes"/>
      <point x="262.0875458477152" y="-13.750373521956863"/>
      <point x="135.77489721618554" y="-17.97261324162901"/>
      <point x="16.54272574745715" y="-33.42942402150379" type="curve" smooth="yes"/>
      <point x="7.521762786288347" y="-34.598867769994236"/>
      <point x="0.5304938482539301" y="-25.697788349075232"/>
      <point x="3.8039061282243836" y="-17.210730939525" type="curve" smooth="yes"/>
      <point x="26.15781460950441" y="40.74680339530916"/>
      <point x="97.20006718895254" y="82.76093817950176"/>
      <point x="196.19594760604977" y="97.8148432015366" type="curve"/>
      <point x="186.0566709188503" y="87.11608317620006" type="line"/>
      <point x="190.03704420962828" y="127.9270428868629"/>
      <point x="190.0" y="194.02474966515942"/>
    </contour>
    <contour>
      <point x="214.0" y="314.34671708797583" type="curve" smooth="yes"/>
      <point x="214.0" y="192.8646077047942"/>
      <point x="213.9620810501646" y="125.99082850660172"/>
      <point x="209.9433290811497" y="84.78637035324185" type="curve" smooth="yes"/>
      <point x="209.41018421048454" y="79.32001022891062"/>
      <point x="205.2339287190466" y="74.91330976241713"/>
      <point x="199.80405239395023" y="74.08761032790531" type="curve" smooth="yes"/>
      <point x="112.93293857077641" y="60.877469752938715"/>
      <point x="45.812151831847125" y="25.01176420187782"/>
      <point x="26.196093871775616" y="-25.847277011743564" type="curve"/>
      <point x="13.457274252542849" y="-9.628583929764776" type="line"/>
      <point x="134.26113934525839" y="6.031975307012647"/>
      <point x="261.8794206376277" y="10.292044096932846"/>
      <point x="372.6162969726171" y="4.597295283559223" type="curve"/>
      <point x="362.2660745674816" y="-14.404752340269873" type="line"/>
      <point x="334.9479346249093" y="23.485976203676024"/>
      <point x="332.99999999999994" y="68.42845928315059"/>
      <point x="333.0" y="314.34671708797583" type="curve" smooth="yes"/>
      <point x="333.00000000000006" y="560.2649748928011"/>
      <point x="334.9479346249093" y="605.2074579722756"/>
      <point x="362.2660745674816" y="643.0981865162215" type="curve"/>
      <point x="372.616296972617" y="624.0961388923924" type="line"/>
      <point x="261.8794206376276" y="618.4013900790188"/>
      <point x="134.26113934525839" y="622.661458868939"/>
      <point x="13.457274252542847" y="638.3220181057164" type="curve"/>
      <point x="26.19609387177562" y="654.5407111876953" type="line"/>
      <point x="45.812151831847125" y="603.6816699740739"/>
      <point x="112.9329385707764" y="567.815964423013"/>
      <point x="199.8040523939502" y="554.6058238480464" type="curve" smooth="yes"/>
      <point x="205.2339287190465" y="553.7801244135346"/>
      <point x="209.41018421048454" y="549.373423947041"/>
      <point x="209.9433290811497" y="543.9070638227098" type="curve" smooth="yes"/>
      <point x="213.9620810501646" y="502.70260566934985"/>
      <point x="214.0" y="435.8288264711576"/>
    </contour>
  </outline>
</glyph>
<glyph name="asciitilde" format="2">
  <advance width="639"/>
  <unicode hex="007E"/>
  <outline>
    <contour>
      <point x="418.0" y="201.1888168179569" type="curve" smooth="yes"/>
      <point x="520.0191713720118" y="201.1888168179569"/>
      <point x="590.8799738063605" y="263.56385356167016"/>
      <point x="572.1608597931471" y="376.73518006514837" type="curve"/>
      <point x="584.0" y="366.69343417595167" type="line"/>
      <point x="479.0" y="366.69343417595167" type="line"/>
      <point x="490.94065082452363" y="377.501436740215" type="line"/>
      <point x="484.0504214303483" y="308.47962441905764"/>
      <point x="463.3413763650523" y="282.5477272147525"/>
      <point x="422.0" y="282.5477272147525" type="curve" smooth="yes"/>
      <point x="392.48446490045995" y="282.5477272147525"/>
      <point x="372.14872352975044" y="299.7494677223753"/>
      <point x="347.2650925416642" y="320.7285795521438" type="curve" smooth="yes"/>
      <point x="318.7575728072861" y="344.7629515769979"/>
      <point x="286.39168311291866" y="371.6431816442574"/>
      <point x="221.0" y="371.6431816442575" type="curve" smooth="yes"/>
      <point x="118.98082862798825" y="371.64318164425754"/>
      <point x="48.120026193639795" y="309.26814490054426"/>
      <point x="66.83914020685295" y="196.09681839706602" type="curve"/>
      <point x="55.0" y="206.13856428626275" type="line"/>
      <point x="160.0" y="206.13856428626275" type="line"/>
      <point x="148.05934917547634" y="195.33056172199943" type="line"/>
      <point x="154.94957856965175" y="264.3523740431568"/>
      <point x="175.65862363494776" y="290.2842712474619"/>
      <point x="217.0" y="290.2842712474619" type="curve" smooth="yes"/>
      <point x="248.7537608070789" y="290.2842712474619"/>
      <point x="268.422083077779" y="271.4590420261067"/>
      <point x="294.73490774316315" y="249.27499154518966" type="curve" smooth="yes"/>
      <point x="321.98785885717115" y="226.29833088805842"/>
      <point x="355.5452094902423" y="201.1888168179569"/>
    </contour>
    <contour>
      <point x="418.0" y="177.1888168179569" type="curve" smooth="yes"/>
      <point x="348.4456540897223" y="177.1888168179569"/>
      <point x="309.6160256822471" y="205.33748341614634"/>
      <point x="279.26509225683685" y="230.92601858158702" type="curve" smooth="yes"/>
      <point x="259.372325236227" y="247.6973897058317"/>
      <point x="241.00617089940914" y="266.2842712474619"/>
      <point x="217.0" y="266.2842712474619" type="curve" smooth="yes"/>
      <point x="186.72695231748736" y="266.2842712474619"/>
      <point x="176.9861587716091" y="243.48916603931818"/>
      <point x="171.94065082452366" y="192.94656685052607" type="curve" smooth="yes"/>
      <point x="171.32818217838468" y="186.81125646708162"/>
      <point x="166.16580500370426" y="182.13856428626275"/>
      <point x="160.0" y="182.13856428626275" type="curve" smooth="yes"/>
      <point x="55.0" y="182.13856428626275" type="line" smooth="yes"/>
      <point x="49.12835852568292" y="182.13856428626275"/>
      <point x="44.119040297667425" y="186.38737795389176"/>
      <point x="43.160859793147054" y="192.18031017545948" type="curve" smooth="yes"/>
      <point x="21.882062542934037" y="320.82687483152927"/>
      <point x="105.0305549863391" y="395.64318164425754"/>
      <point x="221.0" y="395.6431816442575" type="curve" smooth="yes"/>
      <point x="293.6069422104194" y="395.6431816442574"/>
      <point x="331.08189381220933" y="365.7638558651273"/>
      <point x="362.7349074583358" y="339.077552996016" type="curve" smooth="yes"/>
      <point x="381.52028497891035" y="323.2398106682489"/>
      <point x="399.71786320766097" y="306.5477272147525"/>
      <point x="422.0" y="306.5477272147525" type="curve" smooth="yes"/>
      <point x="452.2730476825127" y="306.5477272147525"/>
      <point x="462.0138412283909" y="329.3428324228962"/>
      <point x="467.05934917547637" y="379.8854316116883" type="curve" smooth="yes"/>
      <point x="467.6718178216154" y="386.02074199513277"/>
      <point x="472.83419499629576" y="390.69343417595167"/>
      <point x="479.0" y="390.69343417595167" type="curve" smooth="yes"/>
      <point x="584.0" y="390.69343417595167" type="line" smooth="yes"/>
      <point x="589.8716414743169" y="390.69343417595167"/>
      <point x="594.8809597023326" y="386.4446205083225"/>
      <point x="595.8391402068529" y="380.65168828675496" type="curve" smooth="yes"/>
      <point x="617.1179374570658" y="252.00512363068503"/>
      <point x="533.9694450136609" y="177.1888168179569"/>
    </contour>
  </outline>
</glyph>
<glyph name="exclamdown" format="2">
  <advance width="289"/>
  <unicode hex="00A1"/>
  <outline>
    <contour>
      <point x="186.01975579376526" y="371.64117905189465" type="curve"/>
      <point x="198.0" y="360.32947314527274" type="line"/>
      <point x="91.0" y="360.32947314527274" type="line"/>
      <point x="102.98024420623473" y="371.64117905189465" type="line"/>
      <point x="89.84053756459281" y="142.93531642772402"/>
      <point x="81.31840264194345" y="115.86904606106823"/>
      <point x="62.11421601185139" y="68.69846189483304" type="curve"/>
      <point x="51.0" y="85.22330470336311" type="line"/>
      <point x="238.0" y="85.22330470336311" type="line"/>
      <point x="226.8857839881486" y="68.69846189483306" type="line"/>
      <point x="207.68159735805656" y="115.86904606106825"/>
      <point x="199.15946243540722" y="142.93531642772402"/>
    </contour>
    <contour>
      <point x="225.0" y="566.0559159102154" type="line" smooth="yes"/>
      <point x="231.62741699796953" y="566.0559159102154"/>
      <point x="237.0" y="560.6833329081849"/>
      <point x="237.0" y="554.0559159102154" type="curve" smooth="yes"/>
      <point x="237.0" y="440.2117241391813" type="line" smooth="yes"/>
      <point x="237.0" y="433.58430714121175"/>
      <point x="231.62741699796953" y="428.2117241391813"/>
      <point x="225.0" y="428.2117241391813" type="curve" smooth="yes"/>
      <point x="64.0" y="428.2117241391813" type="line" smooth="yes"/>
      <point x="57.37258300203048" y="428.2117241391813"/>
      <point x="52.0" y="433.58430714121175"/>
      <point x="52.0" y="440.2117241391813" type="curve" smooth="yes"/>
      <point x="52.0" y="554.0559159102154" type="line" smooth="yes"/>
      <point x="52.0" y="560.6833329081849"/>
      <point x="57.37258300203048" y="566.0559159102154"/>
      <point x="64.0" y="566.0559159102154" type="curve" smooth="yes"/>
    </contour>
    <contour>
      <point x="209.98024420623474" y="373.01776723865083" type="curve" smooth="yes"/>
      <point x="222.83922949567437" y="149.19805776564542"/>
      <point x="230.320314434978" y="123.9109625907005"/>
      <point x="249.1142160118514" y="77.74814751189317" type="curve" smooth="yes"/>
      <point x="252.3272301160393" y="69.85613129958405"/>
      <point x="246.52099639297307" y="61.22330470336311"/>
      <point x="238.0" y="61.22330470336311" type="curve" smooth="yes"/>
      <point x="51.0" y="61.22330470336311" type="line" smooth="yes"/>
      <point x="42.479003607026904" y="61.22330470336311"/>
      <point x="36.6727698839607" y="69.85613129958405"/>
      <point x="39.88578398814861" y="77.74814751189318" type="curve" smooth="yes"/>
      <point x="58.67968556502195" y="123.91096259070052"/>
      <point x="66.16077050432558" y="149.19805776564542"/>
      <point x="79.01975579376527" y="373.01776723865083" type="curve" smooth="yes"/>
      <point x="79.38455421233263" y="379.3673410364382"/>
      <point x="84.63995555835206" y="384.32947314527274"/>
      <point x="91.0" y="384.32947314527274" type="curve" smooth="yes"/>
      <point x="198.0" y="384.32947314527274" type="line" smooth="yes"/>
      <point x="204.36004444164783" y="384.32947314527274"/>
      <point x="209.6154457876674" y="379.36734103643806"/>
    </contour>
    <contour>
      <point x="225.0" y="542.0559159102154" type="line"/>
      <point x="64.0" y="542.0559159102154" type="line"/>
      <point x="76.0" y="554.0559159102154" type="line"/>
      <point x="76.0" y="440.2117241391813" type="line"/>
      <point x="64.0" y="452.2117241391813" type="line"/>
      <point x="225.0" y="452.2117241391813" type="line"/>
      <point x="213.0" y="440.2117241391813" type="line"/>
      <point x="213.0" y="554.0559159102154" type="line"/>
    </contour>
  </outline>
</glyph>
<glyph name="sterling" format="2">
  <advance width="566"/>
  <unicode hex="00A3"/>
  <outline>
    <contour>
      <point x="60.0" y="257.09188309203677" type="line" smooth="yes"/>
      <point x="53.37258300203048" y="257.09188309203677"/>
      <point x="48.0" y="262.46446609406723"/>
      <point x="48.0" y="269.09188309203677" type="curve" smooth="yes"/>
      <point x="48.0" y="348.2878425849301" type="line" smooth="yes"/>
      <point x="48.0" y="354.91525958289964"/>
      <point x="53.37258300203048" y="360.2878425849301"/>
      <point x="60.0" y="360.2878425849301" type="curve" smooth="yes"/>
      <point x="113.0" y="360.2878425849301" type="line"/>
      <point x="101.3200576785851" y="345.53485377848335" type="line"/>
      <point x="96.10420740889504" y="367.66383235059254"/>
      <point x="93.0" y="391.2126878819833"/>
      <point x="93.0" y="413.3416664540925" type="curve"/>
      <point x="93.00000000000001" y="556.53269197231"/>
      <point x="307.6679340340773" y="603.0534988820557"/>
      <point x="503.80928327557126" y="555.8229511980363" type="curve" smooth="yes"/>
      <point x="509.2004525787622" y="554.5247655791871"/>
      <point x="513.0" y="549.7016885376314"/>
      <point x="513.0" y="544.1564209736039" type="curve" smooth="yes"/>
      <point x="513.0" y="426.7766952966369" type="line" smooth="yes"/>
      <point x="513.0" y="417.61356535650395"/>
      <point x="503.1448227151401" y="411.8313720876735"/>
      <point x="495.1459926273229" y="416.3014579398682" type="curve" smooth="yes"/>
      <point x="435.2691169729244" y="449.76319819410946"/>
      <point x="395.28780294709566" y="462.8599564173221"/>
      <point x="347.0" y="462.8599564173221" type="curve" smooth="yes"/>
      <point x="298.69930787523595" y="462.8599564173221"/>
      <point x="262.0" y="447.54856875163426"/>
      <point x="262.0" y="404.8563850798539" type="curve" smooth="yes"/>
      <point x="262.0" y="390.55534789246406"/>
      <point x="267.0311724529538" y="371.0552432550818"/>
      <point x="272.5470053837925" y="351.553828908641" type="curve"/>
      <point x="261.0" y="360.2878425849301" type="line"/>
      <point x="476.0" y="360.2878425849301" type="line" smooth="yes"/>
      <point x="483.2239911483444" y="360.2878425849301"/>
      <point x="488.81044638617135" y="353.9516320847604"/>
      <point x="487.9054656773412" y="346.78455052892446" type="curve" smooth="yes"/>
      <point x="477.9054656773412" y="267.5885910360311" type="line" smooth="yes"/>
      <point x="477.14803604026986" y="261.5900543504092"/>
      <point x="472.0461675484447" y="257.09188309203677"/>
      <point x="466.0" y="257.09188309203677" type="curve" smooth="yes"/>
      <point x="284.0" y="257.09188309203677" type="line"/>
      <point x="295.7256780368441" y="271.6430543086099" type="line"/>
      <point x="299.9172307185455" y="252.37786469655367"/>
      <point x="303.0" y="232.46177494030943"/>
      <point x="303.0" y="213.93755415948607" type="curve" smooth="yes"/>
      <point x="303.0" y="191.60768599668074"/>
      <point x="298.2742468895083" y="172.5330318928935"/>
      <point x="288.1237889746304" y="156.58312606231817" type="curve"/>
      <point x="277.8952474312346" y="175.02540869281654" type="line"/>
      <point x="434.34772897982447" y="176.39119400931622"/>
      <point x="482.31341960416637" y="182.66551668146113"/>
      <point x="519.977905902901" y="204.51808174545545" type="curve" smooth="yes"/>
      <point x="528.7533342990431" y="209.6094991212331"/>
      <point x="539.4947584760419" y="202.18978581491805"/>
      <point x="537.8391402068529" y="192.18031017545945" type="curve" smooth="yes"/>
      <point x="517.8391402068529" y="71.26505059255983" type="line" smooth="yes"/>
      <point x="516.8809597023326" y="65.4721183709921"/>
      <point x="511.8716414743171" y="61.22330470336311"/>
      <point x="506.0" y="61.22330470336311" type="curve" smooth="yes"/>
      <point x="60.0" y="61.22330470336311" type="line" smooth="yes"/>
      <point x="53.37258300203048" y="61.22330470336311"/>
      <point x="48.0" y="66.5958877053936"/>
      <point x="48.0" y="73.22330470336311" type="curve" smooth="yes"/>
      <point x="48.0" y="163.02586591405463" type="line" smooth="yes"/>
      <point x="48.0" y="169.65328291202417"/>
      <point x="53.37258300203048" y="175.02586591405463"/>
      <point x="60.0" y="175.02586591405463" type="curve" smooth="yes"/>
      <point x="97.0" y="175.02586591405463" type="line" smooth="yes"/>
      <point x="132.909548951364" y="175.02586591405463"/>
      <point x="135.0" y="184.4330463722195"/>
      <point x="135.0" y="210.40202025355333" type="curve" smooth="yes"/>
      <point x="135.0" y="224.03936271876688"/>
      <point x="129.9347410513064" y="244.21376026688804"/>
      <point x="123.50603616162918" y="265.6438698550807" type="curve"/>
      <point x="135.0" y="257.09188309203677" type="line"/>
    </contour>
    <contour>
      <point x="60.0" y="281.09188309203677" type="line"/>
      <point x="135.0" y="281.09188309203677" type="line" smooth="yes"/>
      <point x="140.29936097226596" y="281.09188309203677"/>
      <point x="144.9712749400557" y="277.61578494413436"/>
      <point x="146.4939638383708" y="272.5398963289928" type="curve" smooth="yes"/>
      <point x="154.04305378047724" y="247.3749793625542"/>
      <point x="159.0" y="226.41605832310523"/>
      <point x="159.0" y="210.40202025355333" type="curve" smooth="yes"/>
      <point x="159.0" y="172.85199013625146"/>
      <point x="148.92367826253079" y="151.02586591405463"/>
      <point x="97.0" y="151.02586591405463" type="curve" smooth="yes"/>
      <point x="60.0" y="151.02586591405463" type="line"/>
      <point x="72.0" y="163.02586591405463" type="line"/>
      <point x="72.0" y="73.22330470336311" type="line"/>
      <point x="60.0" y="85.22330470336311" type="line"/>
      <point x="506.0" y="85.22330470336311" type="line"/>
      <point x="494.16085979314704" y="75.1815588141664" type="line"/>
      <point x="514.1608597931471" y="196.09681839706604" type="line"/>
      <point x="532.022094097099" y="183.75904682707005" type="line"/>
      <point x="491.724142317313" y="160.37857095308837"/>
      <point x="445.49624457710723" y="152.48760287741658"/>
      <point x="278.1047525687654" y="151.02632313529273" type="curve" smooth="yes"/>
      <point x="268.588697721412" y="150.94325070427172"/>
      <point x="262.76689420165985" y="161.44008893628958"/>
      <point x="267.8762110253696" y="169.4686057657911" type="curve" smooth="yes"/>
      <point x="275.71272222162503" y="181.7824951162721"/>
      <point x="279.0" y="196.6981090688126"/>
      <point x="279.0" y="213.93755415948607" type="curve" smooth="yes"/>
      <point x="279.0" y="230.7563255349008"/>
      <point x="276.07997549620615" y="249.04918964503236"/>
      <point x="272.2743219631559" y="266.5407118754636" type="curve" smooth="yes"/>
      <point x="270.6468541574864" y="274.02086976554955"/>
      <point x="276.3448439911975" y="281.09188309203677"/>
      <point x="284.0" y="281.09188309203677" type="curve" smooth="yes"/>
      <point x="466.0" y="281.09188309203677" type="line"/>
      <point x="454.0945343226588" y="270.5951751480424" type="line"/>
      <point x="464.0945343226588" y="349.79113464093575" type="line"/>
      <point x="476.0" y="336.2878425849301" type="line"/>
      <point x="261.0" y="336.2878425849301" type="line" smooth="yes"/>
      <point x="255.63041394647797" y="336.2878425849301"/>
      <point x="250.9144108341068" y="339.85496967215624"/>
      <point x="249.4529946162075" y="345.0218562612192" type="curve" smooth="yes"/>
      <point x="242.98234609440195" y="367.8990535034361"/>
      <point x="238.0" y="388.07977376889477"/>
      <point x="238.0" y="404.8563850798539" type="curve" smooth="yes"/>
      <point x="238.0" y="460.9896340670067"/>
      <point x="283.4924783858422" y="486.8599564173221"/>
      <point x="347.0" y="486.8599564173221" type="curve" smooth="yes"/>
      <point x="398.71571770006886" y="486.8599564173221"/>
      <point x="442.72651742459163" y="473.0890966394605"/>
      <point x="506.8540073726771" y="437.25193265340556" type="curve"/>
      <point x="489.0" y="426.7766952966369" type="line"/>
      <point x="489.0" y="544.1564209736039" type="line"/>
      <point x="498.19071672442874" y="532.4898907491714" type="line"/>
      <point x="324.5185464279386" y="574.3098932743718"/>
      <point x="117.00000000000001" y="540.129293157478"/>
      <point x="117.0" y="413.3416664540925" type="curve"/>
      <point x="117.0" y="393.0480813828068"/>
      <point x="119.8966984485841" y="371.33441646266255"/>
      <point x="124.6799423214149" y="351.04083139137686" type="curve" smooth="yes"/>
      <point x="126.45564329250162" y="343.5071702032871"/>
      <point x="120.74010108691405" y="336.2878425849301"/>
      <point x="113.0" y="336.2878425849301" type="curve" smooth="yes"/>
      <point x="60.0" y="336.2878425849301" type="line"/>
      <point x="72.0" y="348.2878425849301" type="line"/>
      <point x="72.0" y="269.09188309203677" type="line"/>
    </contour>
  </outline>
</glyph>
<glyph name="section" format="2">
  <advance width="505"/>
  <unicode hex="00A7"/>
  <outline>
    <contour>
      <point x="466.0" y="118.47813869930215" type="curve" smooth="yes"/>
      <point x="466.0" y="12.993945100152322"/>
      <point x="289.20239168717086" y="-51.89941061021932"/>
      <point x="64.3710746155683" y="-1.4176893877690002" type="curve" smooth="yes"/>
      <point x="58.89296434846697" y="-0.1876808687975089"/>
      <point x="55.0" y="4.676300927937302"/>
      <point x="55.0" y="10.29080117776039" type="curve" smooth="yes"/>
      <point x="55.0" y="115.64971157455597" type="line" smooth="yes"/>
      <point x="55.0" y="124.1806370541752"/>
      <point x="63.651342849041846" y="129.98718641582957"/>
      <point x="71.54632149610072" y="126.75515892502737" type="curve" smooth="yes"/>
      <point x="126.95272539055274" y="104.07301771112184"/>
      <point x="178.42584914706924" y="91.58726573404203"/>
      <point x="228.0" y="91.58726573404203" type="curve" smooth="yes"/>
      <point x="256.385397904488" y="91.58726573404203"/>
      <point x="291.0" y="96.71052012482683"/>
      <point x="291.0" y="107.16443020031738" type="curve" smooth="yes"/>
      <point x="291.0" y="115.99687872003793"/>
      <point x="222.54097401869066" y="132.2387240677904"/>
      <point x="197.0660701826196" y="138.66213464892044" type="curve" smooth="yes"/>
      <point x="115.1700742144183" y="159.3119322080959"/>
      <point x="27.0" y="188.39626319873247"/>
      <point x="27.0" y="262.0208152801713" type="curve" smooth="yes"/>
      <point x="27.0" y="305.03386470284323"/>
      <point x="58.5205325349526" y="343.78480030087786"/>
      <point x="112.71420989451201" y="370.3746853985294" type="curve"/>
      <point x="112.81595598833748" y="348.779088901715" type="line"/>
      <point x="77.62435644657825" y="365.6361402634042"/>
      <point x="50.0" y="392.1064930700338"/>
      <point x="50.0" y="433.84776310850236" type="curve"/>
      <point x="50.00000000000001" y="544.550814861733"/>
      <point x="218.40681994702805" y="602.4189911848005"/>
      <point x="431.4105712198301" y="558.7402360712808" type="curve" smooth="yes"/>
      <point x="436.992666264022" y="557.5955662661778"/>
      <point x="441.0" y="552.68309818457"/>
      <point x="441.0" y="546.98484809835" type="curve" smooth="yes"/>
      <point x="441.0" y="442.33304448274095" type="line" smooth="yes"/>
      <point x="441.0" y="433.6894619636902"/>
      <point x="432.13768213234516" y="427.8808311712789"/>
      <point x="424.2119551866834" y="431.3296528753468" type="curve" smooth="yes"/>
      <point x="373.892075817628" y="453.22597775556096"/>
      <point x="326.51373944185656" y="465.6883835420683"/>
      <point x="282.0" y="465.6883835420683" type="curve" smooth="yes"/>
      <point x="255.8368706157983" y="465.6883835420683"/>
      <point x="225.0" y="460.2021970055912"/>
      <point x="225.0" y="450.111219075793" type="curve" smooth="yes"/>
      <point x="225.0" y="441.1059169785444"/>
      <point x="288.5916639848372" y="425.1924540186543"/>
      <point x="313.13009863900027" y="418.562284937152" type="curve" smooth="yes"/>
      <point x="391.5516302557219" y="397.3731576934131"/>
      <point x="477.0" y="368.0616480353222"/>
      <point x="477.0" y="293.84062043356596" type="curve" smooth="yes"/>
      <point x="477.0" y="250.80606448618283"/>
      <point x="445.4021587942288" y="211.20651973408326"/>
      <point x="390.0748381837807" y="185.38578616565343" type="curve"/>
      <point x="389.57577156990385" y="207.35323013692977" type="line"/>
      <point x="430.38163253423744" y="190.52167122024233"/>
      <point x="466.0" y="164.96530142158187"/>
    </contour>
    <contour>
      <point x="320.0" y="275.4558441227157" type="curve" smooth="yes"/>
      <point x="320.0" y="292.6601767013407"/>
      <point x="281.3391280043021" y="305.88225099390854"/>
      <point x="243.0" y="305.88225099390854" type="curve" smooth="yes"/>
      <point x="210.92599107858663" y="305.88225099390854"/>
      <point x="184.0" y="296.4356435319925"/>
      <point x="184.0" y="281.81980515339467" type="curve" smooth="yes"/>
      <point x="184.0" y="264.6154725747697"/>
      <point x="222.66087199569785" y="251.3933982822018"/>
      <point x="261.0" y="251.3933982822018" type="curve" smooth="yes"/>
      <point x="293.0740089214132" y="251.3933982822018"/>
      <point x="320.0" y="260.84000574411783"/>
    </contour>
    <contour>
      <point x="442.0" y="118.47813869930215" type="curve" smooth="yes"/>
      <point x="442.0" y="153.8693579226748"/>
      <point x="411.4902063564075" y="172.35247699011458"/>
      <point x="380.42422843009615" y="185.166539122715" type="curve" smooth="yes"/>
      <point x="370.7666604103086" y="189.15008269404288"/>
      <point x="370.458464370954" y="202.71596556105894"/>
      <point x="379.9251618162193" y="207.13398309399133" type="curve" smooth="yes"/>
      <point x="424.4943692488611" y="227.9340077070938"/>
      <point x="453.0" y="259.173912745062"/>
      <point x="453.0" y="293.84062043356596" type="curve" smooth="yes"/>
      <point x="453.0" y="353.629705781812"/>
      <point x="370.04272176616206" y="378.324128373985"/>
      <point x="306.86990136099973" y="395.3931259096751" type="curve" smooth="yes"/>
      <point x="234.39917733346448" y="414.97437306473483"/>
      <point x="201.0" y="423.51535946730075"/>
      <point x="201.0" y="450.111219075793" type="curve" smooth="yes"/>
      <point x="201.0" y="472.3126838173286"/>
      <point x="224.43771033961568" y="489.6883835420683"/>
      <point x="282.0" y="489.6883835420683" type="curve" smooth="yes"/>
      <point x="329.4834221908038" y="489.6883835420683"/>
      <point x="380.11113277153845" y="476.69354901191673"/>
      <point x="433.7880448133166" y="453.33643609013507" type="curve"/>
      <point x="417.0" y="442.33304448274095" type="line"/>
      <point x="417.0" y="546.98484809835" type="line"/>
      <point x="426.5894287801699" y="535.2294601254191" type="line"/>
      <point x="240.14318822367943" y="573.4623064224467"/>
      <point x="74.0" y="530.7482528613134"/>
      <point x="74.0" y="433.84776310850236" type="curve" smooth="yes"/>
      <point x="74.0" y="402.1177044944443"/>
      <point x="96.4327852417832" y="383.2380753987151"/>
      <point x="123.18404401166252" y="370.4240132661147" type="curve" smooth="yes"/>
      <point x="132.22458002214768" y="366.0935258244992"/>
      <point x="132.28512011721634" y="353.24389773731207"/>
      <point x="123.28579010548799" y="348.8284167693003" type="curve" smooth="yes"/>
      <point x="79.58611698493867" y="327.38736785558643"/>
      <point x="51.0" y="296.70486499353194"/>
      <point x="51.0" y="262.0208152801713" type="curve" smooth="yes"/>
      <point x="51.0" y="203.06702925177908"/>
      <point x="137.35690576226764" y="178.4687772082894"/>
      <point x="202.9339298173804" y="161.93375305647314" type="curve" smooth="yes"/>
      <point x="279.98972322513305" y="142.50439615299805"/>
      <point x="315.0" y="133.88057926999582"/>
      <point x="315.0" y="107.16443020031738" type="curve" smooth="yes"/>
      <point x="315.0" y="84.10748074261282"/>
      <point x="290.6063052096706" y="67.58726573404203"/>
      <point x="228.0" y="67.58726573404203" type="curve" smooth="yes"/>
      <point x="175.56616504960922" y="67.58726573404203"/>
      <point x="121.05619991904192" y="80.55370405776613"/>
      <point x="62.45367850389928" y="104.54426422408456" type="curve"/>
      <point x="79.0" y="115.64971157455597" type="line"/>
      <point x="79.0" y="10.290801177760383" type="line"/>
      <point x="69.6289253844317" y="21.999291743289774" type="line"/>
      <point x="266.13305756293795" y="-22.122083111867457"/>
      <point x="442.0" y="26.28422109151101"/>
    </contour>
    <contour>
      <point x="344.0" y="275.4558441227157" type="curve" smooth="yes"/>
      <point x="344.0" y="249.85540251377842"/>
      <point x="317.17938371291325" y="227.3933982822018"/>
      <point x="261.0" y="227.3933982822018" type="curve" smooth="yes"/>
      <point x="197.018541520222" y="227.3933982822018"/>
      <point x="160.0" y="253.10871160875112"/>
      <point x="160.0" y="281.81980515339467" type="curve" smooth="yes"/>
      <point x="160.0" y="307.420246762332"/>
      <point x="186.82061628708664" y="329.88225099390854"/>
      <point x="243.0" y="329.88225099390854" type="curve" smooth="yes"/>
      <point x="306.9814584797778" y="329.88225099390854"/>
      <point x="344.0" y="304.16693766735926"/>
    </contour>
  </outline>
</glyph>
<glyph name="copyright" format="2">
  <advance width="812"/>
  <unicode hex="00A9"/>
  <outline>
    <contour>
      <point x="406.0" y="121.32738110421965" type="curve" smooth="yes"/>
      <point x="250.92640839563717" y="121.32738110421968"/>
      <point x="141.0" y="203.98602210039104"/>
      <point x="141.0" y="313.6396103067893" type="curve" smooth="yes"/>
      <point x="141.0" y="423.2931985131875"/>
      <point x="250.92640839563717" y="505.95183950935893"/>
      <point x="406.0" y="505.95183950935893" type="curve" smooth="yes"/>
      <point x="561.0735916043628" y="505.95183950935893"/>
      <point x="671.0" y="423.2931985131875"/>
      <point x="671.0" y="313.6396103067893" type="curve" smooth="yes"/>
      <point x="671.0" y="203.98602210039104"/>
      <point x="561.0735916043628" y="121.32738110421963"/>
    </contour>
    <contour>
      <point x="516.560680216923" y="211.99909347573302" type="curve"/>
      <point x="508.0" y="200.50252531694167" type="line"/>
      <point x="508.0" y="274.74873734152914" type="line"/>
      <point x="525.7539028987305" y="264.2181817326365" type="line"/>
      <point x="502.11139187604476" y="251.2998972888584"/>
      <point x="471.16512816626744" y="241.53553390593274"/>
      <point x="440.0" y="241.53553390593274" type="curve" smooth="yes"/>
      <point x="384.2579318587389" y="241.53553390593274"/>
      <point x="346.0" y="268.4759084129838"/>
      <point x="346.0" y="313.6396103067893" type="curve" smooth="yes"/>
      <point x="346.0" y="358.7356343368945"/>
      <point x="383.3414614174739" y="386.45079348883235"/>
      <point x="439.0" y="386.45079348883235" type="curve" smooth="yes"/>
      <point x="471.111118282332" y="386.45079348883235"/>
      <point x="502.9322350103722" y="375.3018735771602"/>
      <point x="525.4100178080046" y="363.9488788327001" type="curve"/>
      <point x="508.0" y="353.237590053236" type="line"/>
      <point x="508.0" y="426.7766952966369" type="line"/>
      <point x="516.5606802169231" y="415.2801271378455" type="line"/>
      <point x="491.5759463537492" y="422.7545741435649"/>
      <point x="460.7113929801822" y="426.79751057680824"/>
      <point x="429.0" y="426.79751057680824" type="curve" smooth="yes"/>
      <point x="336.3357061445235" y="426.79751057680824"/>
      <point x="262.0" y="381.0510461860224"/>
      <point x="262.0" y="312.9325035256027" type="curve" smooth="yes"/>
      <point x="262.0" y="244.8480201365132"/>
      <point x="336.38203829145124" y="200.48171003677035"/>
      <point x="429.0" y="200.48171003677035" type="curve" smooth="yes"/>
      <point x="460.7113929801822" y="200.48171003677035"/>
      <point x="491.5759463537492" y="204.52464647001352"/>
    </contour>
    <contour>
      <point x="406.0" y="74.6167029855649" type="curve" smooth="yes"/>
      <point x="605.9778598353087" y="74.6167029855649"/>
      <point x="752.0" y="174.27341482973395"/>
      <point x="752.0" y="313.6396103067893" type="curve" smooth="yes"/>
      <point x="752.0" y="453.0058057838446"/>
      <point x="605.9778598353087" y="552.6625176280138"/>
      <point x="406.0" y="552.6625176280137" type="curve" smooth="yes"/>
      <point x="206.02214016469148" y="552.6625176280136"/>
      <point x="60.00000000000003" y="453.0058057838446"/>
      <point x="60.0" y="313.6396103067893" type="curve" smooth="yes"/>
      <point x="59.99999999999997" y="174.27341482973395"/>
      <point x="206.02214016469148" y="74.6167029855649"/>
    </contour>
    <contour>
      <point x="406.0" y="145.32738110421965" type="curve" smooth="yes"/>
      <point x="544.7564395467327" y="145.32738110421963"/>
      <point x="647.0" y="215.52399096999335"/>
      <point x="647.0" y="313.6396103067893" type="curve" smooth="yes"/>
      <point x="647.0" y="411.75522964358515"/>
      <point x="544.7564395467327" y="481.95183950935893"/>
      <point x="406.0" y="481.95183950935893" type="curve" smooth="yes"/>
      <point x="267.24356045326743" y="481.95183950935893"/>
      <point x="165.0" y="411.75522964358515"/>
      <point x="165.0" y="313.6396103067893" type="curve" smooth="yes"/>
      <point x="165.0" y="215.52399096999335"/>
      <point x="267.24356045326743" y="145.32738110421968"/>
    </contour>
    <contour>
      <point x="523.439319783077" y="189.00595715815032" type="curve" smooth="yes"/>
      <point x="496.4255169317029" y="180.92449273506284"/>
      <point x="463.2867497728979" y="176.48171003677035"/>
      <point x="429.0" y="176.48171003677035" type="curve" smooth="yes"/>
      <point x="319.748733348862" y="176.48171003677035"/>
      <point x="238.0" y="232.62069453812614"/>
      <point x="238.0" y="312.9325035256027" type="curve" smooth="yes"/>
      <point x="238.0" y="393.24431251307936"/>
      <point x="319.748733348862" y="450.79751057680824"/>
      <point x="429.0" y="450.79751057680824" type="curve" smooth="yes"/>
      <point x="463.2867497728979" y="450.79751057680824"/>
      <point x="496.4255169317029" y="446.35472787851575"/>
      <point x="523.4393197830769" y="438.27326345542826" type="curve" smooth="yes"/>
      <point x="528.5195747755026" y="436.75345152049323"/>
      <point x="532.0" y="432.0794133832069"/>
      <point x="532.0" y="426.7766952966369" type="curve" smooth="yes"/>
      <point x="532.0" y="353.237590053236" type="line" smooth="yes"/>
      <point x="532.0" y="344.2957435555326"/>
      <point x="522.5715405302071" y="338.4950055413537"/>
      <point x="514.5899821919954" y="342.5263012737719" type="curve" smooth="yes"/>
      <point x="495.0620201540367" y="352.3894115450533"/>
      <point x="466.89708862565516" y="362.45079348883235"/>
      <point x="439.0" y="362.45079348883235" type="curve" smooth="yes"/>
      <point x="398.8367526600162" y="362.45079348883235"/>
      <point x="370.0" y="346.1809384353648"/>
      <point x="370.0" y="313.6396103067893" type="curve" smooth="yes"/>
      <point x="370.0" y="281.17910919098006"/>
      <point x="399.9365111976106" y="265.53553390593277"/>
      <point x="440.0" y="265.53553390593277" type="curve" smooth="yes"/>
      <point x="466.83302056862357" y="265.53553390593277"/>
      <point x="493.8900125319689" y="274.1567142033715"/>
      <point x="514.2460971012695" y="285.2792929504218" type="curve" smooth="yes"/>
      <point x="522.2427997296727" y="289.6486968207171"/>
      <point x="532.0" y="283.8613079507954"/>
      <point x="532.0" y="274.74873734152914" type="curve" smooth="yes"/>
      <point x="532.0" y="200.50252531694167" type="line" smooth="yes"/>
      <point x="532.0" y="195.19980723037162"/>
      <point x="528.5195747755027" y="190.5257690930854"/>
    </contour>
    <contour>
      <point x="406.0" y="50.6167029855649" type="curve" smooth="yes"/>
      <point x="190.10552563698855" y="50.6167029855649"/>
      <point x="35.99999999999997" y="163.18099683192347"/>
      <point x="36.0" y="313.6396103067893" type="curve" smooth="yes"/>
      <point x="36.00000000000003" y="464.09822378165507"/>
      <point x="190.10552563698855" y="576.6625176280136"/>
      <point x="406.0" y="576.6625176280137" type="curve" smooth="yes"/>
      <point x="621.8944743630116" y="576.6625176280138"/>
      <point x="776.0" y="464.09822378165507"/>
      <point x="776.0" y="313.6396103067893" type="curve" smooth="yes"/>
      <point x="776.0" y="163.18099683192347"/>
      <point x="621.8944743630116" y="50.6167029855649"/>
    </contour>
  </outline>
</glyph>
<glyph name="guillemetleft" format="2">
  <advance width="752"/>
  <unicode hex="00AB"/>
  <outline>
    <contour>
      <point x="263.6193589566568" y="279.12760848818425" type="curve"/>
      <point x="263.6193589566568" y="295.8257103175898" type="line"/>
      <point x="314.4360442870115" y="243.36378903759532"/>
      <point x="364.18006867910526" y="176.60807848142775"/>
      <point x="402.8007495301748" y="96.83721187760061" type="curve" smooth="yes"/>
      <point x="408.17002849976035" y="85.7469869772884"/>
      <point x="395.3382875544411" y="74.73567510407112"/>
      <point x="385.1917544943058" y="81.7263912227761" type="curve" smooth="yes"/>
      <point x="268.9403873122956" y="161.82077435485442"/>
      <point x="147.7686631571314" y="220.06095527112936"/>
      <point x="0.7156516790329857" y="276.26753992521947" type="curve" smooth="yes"/>
      <point x="-9.571883893010996" y="280.1996405547817"/>
      <point x="-9.571883893010993" y="294.7536782509924"/>
      <point x="0.715651679032991" y="298.6857788805546" type="curve" smooth="yes"/>
      <point x="147.7686631571314" y="354.8923635346446"/>
      <point x="268.9403873122956" y="413.1325444509197"/>
      <point x="385.1917544943058" y="493.226927582998" type="curve" smooth="yes"/>
      <point x="395.33828755444034" y="500.21764370170246"/>
      <point x="408.17002849976" y="489.2063318284849"/>
      <point x="402.8007495301748" y="478.11610692817345" type="curve" smooth="yes"/>
      <point x="364.18006867910526" y="398.34524032434626"/>
      <point x="314.4360442870115" y="331.5895297681787"/>
    </contour>
    <contour>
      <point x="583.6193589566568" y="279.12760848818425" type="curve"/>
      <point x="583.6193589566568" y="295.8257103175898" type="line"/>
      <point x="634.4360442870114" y="243.36378903759532"/>
      <point x="684.180068679105" y="176.60807848142775"/>
      <point x="722.8007495301748" y="96.83721187760061" type="curve" smooth="yes"/>
      <point x="728.1700284997602" y="85.74698697728871"/>
      <point x="715.3382875544409" y="74.73567510407133"/>
      <point x="705.1917544943059" y="81.7263912227761" type="curve" smooth="yes"/>
      <point x="588.9403873122958" y="161.82077435485442"/>
      <point x="467.7686631571314" y="220.06095527112936"/>
      <point x="320.715651679033" y="276.26753992521947" type="curve" smooth="yes"/>
      <point x="310.4281161069891" y="280.1996405547817"/>
      <point x="310.4281161069891" y="294.75367825099244"/>
      <point x="320.715651679033" y="298.6857788805546" type="curve" smooth="yes"/>
      <point x="467.7686631571314" y="354.8923635346446"/>
      <point x="588.9403873122958" y="413.1325444509197"/>
      <point x="705.1917544943059" y="493.226927582998" type="curve" smooth="yes"/>
      <point x="715.3382875544409" y="500.21764370170274"/>
      <point x="728.1700284997602" y="489.20633182848536"/>
      <point x="722.8007495301748" y="478.11610692817345" type="curve" smooth="yes"/>
      <point x="684.180068679105" y="398.34524032434626"/>
      <point x="634.4360442870114" y="331.5895297681787"/>
    </contour>
    <contour>
      <point x="246.38064104334316" y="295.8257103175898" type="curve" smooth="yes"/>
      <point x="295.5676130938406" y="346.605154882682"/>
      <point x="343.8171517114472" y="411.36178856282174"/>
      <point x="381.1992504698252" y="488.57436865494793" type="curve"/>
      <point x="398.8082455056942" y="473.4635480001234" type="line"/>
      <point x="281.02447704029646" y="392.31337740954956"/>
      <point x="158.27578193531636" y="333.2150280589555"/>
      <point x="9.284348320967009" y="276.26753992521947" type="curve"/>
      <point x="9.284348320967014" y="298.6857788805546" type="line"/>
      <point x="158.27578193531636" y="241.73829074681856"/>
      <point x="281.02447704029646" y="182.6399413962245"/>
      <point x="398.8082455056942" y="101.48977080565061" type="curve"/>
      <point x="381.1992504698252" y="86.3789501508261" type="line"/>
      <point x="343.8171517114472" y="163.59153024295253"/>
      <point x="295.5676130938406" y="228.3481639230921"/>
      <point x="246.38064104334316" y="279.12760848818425" type="curve" smooth="yes"/>
      <point x="241.8731196522189" y="283.78106494351505"/>
      <point x="241.8731196522189" y="291.172253862259"/>
    </contour>
    <contour>
      <point x="566.3806410433432" y="295.8257103175898" type="curve" smooth="yes"/>
      <point x="615.5676130938402" y="346.605154882682"/>
      <point x="663.8171517114473" y="411.36178856282174"/>
      <point x="701.1992504698252" y="488.57436865494793" type="curve"/>
      <point x="718.8082455056941" y="473.4635480001234" type="line"/>
      <point x="601.0244770402963" y="392.31337740954956"/>
      <point x="478.2757819353163" y="333.2150280589555"/>
      <point x="329.284348320967" y="276.26753992521947" type="curve"/>
      <point x="329.284348320967" y="298.6857788805546" type="line"/>
      <point x="478.2757819353163" y="241.73829074681856"/>
      <point x="601.0244770402963" y="182.6399413962245"/>
      <point x="718.8082455056941" y="101.48977080565061" type="curve"/>
      <point x="701.1992504698252" y="86.3789501508261" type="line"/>
      <point x="663.8171517114473" y="163.59153024295253"/>
      <point x="615.5676130938402" y="228.3481639230921"/>
      <point x="566.3806410433432" y="279.12760848818425" type="curve" smooth="yes"/>
      <point x="561.8731196522189" y="283.78106494351505"/>
      <point x="561.8731196522189" y="291.172253862259"/>
    </contour>
  </outline>
</glyph>
<glyph name="registered" format="2">
  <advance width="614"/>
  <unicode hex="00AE"/>
  <outline>
    <contour>
      <point x="307.0" y="192.74516600406096" type="curve" smooth="yes"/>
      <point x="149.89511605387744" y="192.745166004061"/>
      <point x="37.99999999999999" y="275.3816799731748"/>
      <point x="38.0" y="386.4716087690037" type="curve" smooth="yes"/>
      <point x="38.00000000000001" y="497.5615375648326"/>
      <point x="149.89511605387744" y="580.1980515339465"/>
      <point x="307.0" y="580.1980515339465" type="curve" smooth="yes"/>
      <point x="464.1048839461225" y="580.1980515339465"/>
      <point x="576.0" y="497.5615375648326"/>
      <point x="576.0" y="386.4716087690037" type="curve" smooth="yes"/>
      <point x="576.0" y="275.3816799731748"/>
      <point x="464.1048839461225" y="192.74516600406093"/>
    </contour>
    <contour>
      <point x="190.0" y="282.5477272147525" type="line" smooth="yes"/>
      <point x="180.2656894335126" y="282.5477272147525"/>
      <point x="174.58193420293034" y="293.5278991498024"/>
      <point x="180.20204102886728" y="301.47593044502804" type="curve" smooth="yes"/>
      <point x="187.19225784967338" y="311.3615898769406"/>
      <point x="190.0" y="331.1394514169208"/>
      <point x="190.0" y="393.54267658086917" type="curve" smooth="yes"/>
      <point x="190.0" y="453.74153674809446"/>
      <point x="187.29908542907398" y="473.3621440798113"/>
      <point x="180.4195666825777" y="482.4831834990878" type="curve" smooth="yes"/>
      <point x="174.4559690518687" y="490.3898716083547"/>
      <point x="180.09645449557473" y="501.7091988222396"/>
      <point x="190.0" y="501.7091988222396" type="curve" smooth="yes"/>
      <point x="311.0" y="501.7091988222396" type="line" smooth="yes"/>
      <point x="387.40221554419674" y="501.7091988222396"/>
      <point x="432.0" y="469.20232420281957"/>
      <point x="432.0" y="423.2411613907042" type="curve" smooth="yes"/>
      <point x="432.0" y="395.58030941907793"/>
      <point x="414.8352051230875" y="372.22870763418746"/>
      <point x="385.20008996773277" y="357.97917783062246" type="curve"/>
      <point x="388.96580783513167" y="376.7697959245802" type="line"/>
      <point x="426.87545260501986" y="334.15486394693943"/>
      <point x="452.8273451081883" y="315.0387200244128"/>
      <point x="469.35206205916523" y="304.7286558362739" type="curve" smooth="yes"/>
      <point x="479.58487879553275" y="298.34421986134043"/>
      <point x="475.06115919296764" y="282.5477272147525"/>
      <point x="463.0" y="282.5477272147525" type="curve" smooth="yes"/>
      <point x="354.0" y="282.5477272147525" type="line" smooth="yes"/>
      <point x="347.8748740884229" y="282.5477272147525"/>
      <point x="342.7327995920514" y="287.1607547361388"/>
      <point x="342.0703818387308" y="293.2499558457064" type="curve" smooth="yes"/>
      <point x="341.1987869955358" y="301.2619939586224"/>
      <point x="335.4983384556504" y="314.1874300095016"/>
      <point x="304.12092410062763" y="348.70082495744776" type="curve"/>
      <point x="313.0" y="344.7731239591687" type="line"/>
      <point x="276.0" y="344.7731239591687" type="line"/>
      <point x="287.99643440788446" y="357.0656329288195" type="line"/>
      <point x="288.86802925107946" y="321.3196167327326"/>
      <point x="291.8192743126826" y="309.1187855965781"/>
      <point x="297.04884337185297" y="301.1067474836621" type="curve" smooth="yes"/>
      <point x="302.25866221804506" y="293.124967974721"/>
      <point x="296.5315799602946" y="282.5477272147525"/>
      <point x="287.0" y="282.5477272147525" type="curve" smooth="yes"/>
    </contour>
    <contour>
      <point x="303.0" y="433.86857838867365" type="curve" smooth="yes"/>
      <point x="277.0" y="433.86857838867365" type="line"/>
      <point x="288.963133553429" y="444.9286658486881" type="line"/>
      <point x="287.9896318573025" y="432.53801213379063"/>
      <point x="288.0" y="415.72040245022487"/>
      <point x="288.0" y="399.19953083036154" type="curve"/>
      <point x="276.0" y="411.19953083036154" type="line"/>
      <point x="307.0" y="411.19953083036154" type="line" smooth="yes"/>
      <point x="319.0611002707227" y="411.19953083036154"/>
      <point x="332.0" y="414.39322726451854"/>
      <point x="332.0" y="422.5340546095176" type="curve" smooth="yes"/>
      <point x="332.0" y="430.2909956933251"/>
      <point x="317.2609626682245" y="433.86857838867365"/>
    </contour>
    <contour>
      <point x="307.0" y="216.74516600406096" type="curve" smooth="yes"/>
      <point x="447.71463958144494" y="216.74516600406093"/>
      <point x="552.0" y="286.971332908743"/>
      <point x="552.0" y="386.4716087690037" type="curve" smooth="yes"/>
      <point x="552.0" y="485.97188462926437"/>
      <point x="447.71463958144494" y="556.1980515339465"/>
      <point x="307.0" y="556.1980515339465" type="curve" smooth="yes"/>
      <point x="166.28536041855503" y="556.1980515339465"/>
      <point x="62.00000000000001" y="485.97188462926437"/>
      <point x="62.0" y="386.4716087690037" type="curve" smooth="yes"/>
      <point x="61.99999999999999" y="286.971332908743"/>
      <point x="166.28536041855503" y="216.745166004061"/>
    </contour>
    <contour>
      <point x="190.0" y="306.5477272147525" type="line"/>
      <point x="287.0" y="306.5477272147525" type="line"/>
      <point x="276.95115662814703" y="287.9887069458429" type="line"/>
      <point x="270.26840881478745" y="298.22710892004613"/>
      <point x="265.11735689434215" y="310.80159079691856"/>
      <point x="264.00356559211554" y="356.48061498951785" type="curve" smooth="yes"/>
      <point x="263.83922550382414" y="363.22056245891224"/>
      <point x="269.25804927674375" y="368.7731239591687"/>
      <point x="276.0" y="368.7731239591687" type="curve" smooth="yes"/>
      <point x="313.0" y="368.7731239591687" type="line" smooth="yes"/>
      <point x="316.3808335742976" y="368.7731239591687"/>
      <point x="319.6048176088068" y="367.34697945333414"/>
      <point x="321.87907589937237" y="364.8454229608896" type="curve" smooth="yes"/>
      <point x="361.814986323576" y="320.91816262384737"/>
      <point x="364.82028731615236" y="306.04289830489773"/>
      <point x="365.9296181612692" y="295.84549858379864" type="curve"/>
      <point x="354.0" y="306.5477272147525" type="line"/>
      <point x="463.0" y="306.5477272147525" type="line"/>
      <point x="456.64793794083477" y="284.3667985932311" type="line"/>
      <point x="439.17872756256037" y="295.26614899363005"/>
      <point x="411.11061597385094" y="315.7674342324502"/>
      <point x="371.03419216486833" y="360.81808255409976" type="curve" smooth="yes"/>
      <point x="365.7334241721127" y="366.77677377401756"/>
      <point x="367.6124011053949" y="376.1527119626769"/>
      <point x="374.79991003226723" y="379.6087006480575" type="curve" smooth="yes"/>
      <point x="395.1032294930586" y="389.3711987605567"/>
      <point x="408.0" y="404.2904297605587"/>
      <point x="408.0" y="423.2411613907042" type="curve" smooth="yes"/>
      <point x="408.0" y="457.6281769970832"/>
      <point x="368.1622652155286" y="477.7091988222396"/>
      <point x="311.0" y="477.7091988222396" type="curve" smooth="yes"/>
      <point x="190.0" y="477.7091988222396" type="line"/>
      <point x="199.5804333174223" y="496.93521414539146" type="line"/>
      <point x="208.4907637352351" y="485.1216734059262"/>
      <point x="214.0" y="471.51204546134034"/>
      <point x="214.0" y="393.54267658086917" type="curve" smooth="yes"/>
      <point x="214.0" y="314.71285465995726"/>
      <point x="208.6282324982622" y="300.1074165660076"/>
      <point x="199.79795897113272" y="287.619523984477" type="curve"/>
    </contour>
    <contour>
      <point x="303.0" y="457.86857838867365" type="line" smooth="yes"/>
      <point x="338.76838323350904" y="457.86857838867365"/>
      <point x="356.0" y="441.98949025297406"/>
      <point x="356.0" y="422.5340546095176" type="curve" smooth="yes"/>
      <point x="356.0" y="401.817056290835"/>
      <point x="337.6934152317484" y="387.19953083036154"/>
      <point x="307.0" y="387.19953083036154" type="curve" smooth="yes"/>
      <point x="276.0" y="387.19953083036154" type="line" smooth="yes"/>
      <point x="269.37258300203047" y="387.19953083036154"/>
      <point x="264.0" y="392.572113832392"/>
      <point x="264.0" y="399.19953083036154" type="curve" smooth="yes"/>
      <point x="264.0" y="416.603657103561"/>
      <point x="264.0113184708705" y="433.75539622375953"/>
      <point x="265.036866446571" y="446.8084909286592" type="curve" smooth="yes"/>
      <point x="265.52741423590066" y="453.0521449586184"/>
      <point x="270.7371050799616" y="457.86857838867365"/>
      <point x="277.0" y="457.86857838867365" type="curve" smooth="yes"/>
    </contour>
  </outline>
</glyph>
<glyph name="macron" format="2">
  <advance width="490"/>
  <unicode hex="00AF"/>
  <outline>
    <contour>
      <point x="60.0" y="489.02290732122435" type="line" smooth="yes"/>
      <point x="53.37258300203048" y="489.02290732122435"/>
      <point x="48.0" y="494.3954903232548"/>
      <point x="48.0" y="501.02290732122435" type="curve" smooth="yes"/>
      <point x="48.0" y="589.4112549695428" type="line" smooth="yes"/>
      <point x="48.0" y="596.0386719675123"/>
      <point x="53.37258300203048" y="601.4112549695428"/>
      <point x="60.0" y="601.4112549695428" type="curve" smooth="yes"/>
      <point x="430.0" y="601.4112549695428" type="line" smooth="yes"/>
      <point x="436.62741699796953" y="601.4112549695428"/>
      <point x="442.0" y="596.0386719675123"/>
      <point x="442.0" y="589.4112549695428" type="curve" smooth="yes"/>
      <point x="442.0" y="501.02290732122435" type="line" smooth="yes"/>
      <point x="442.0" y="494.3954903232548"/>
      <point x="436.62741699796953" y="489.02290732122435"/>
      <point x="430.0" y="489.02290732122435" type="curve" smooth="yes"/>
    </contour>
    <contour>
      <point x="60.0" y="513.0229073212244" type="line"/>
      <point x="430.0" y="513.0229073212244" type="line"/>
      <point x="418.0" y="501.02290732122435" type="line"/>
      <point x="418.0" y="589.4112549695428" type="line"/>
      <point x="430.0" y="577.4112549695428" type="line"/>
      <point x="60.0" y="577.4112549695428" type="line"/>
      <point x="72.0" y="589.4112549695428" type="line"/>
      <point x="72.0" y="501.02290732122435" type="line"/>
    </contour>
  </outline>
</glyph>
<glyph name="plusminus" format="2">
  <advance width="540"/>
  <unicode hex="00B1"/>
  <outline>
    <contour>
      <point x="40.0" y="284.6690475583121" type="line" smooth="yes"/>
      <point x="33.37258300203048" y="284.6690475583121"/>
      <point x="27.999999999999996" y="290.0416305603426"/>
      <point x="28.0" y="296.6690475583121" type="curve"/>
      <point x="28.0" y="386.4716087690037" type="line"/>
      <point x="28.000000000000004" y="393.0990257669732"/>
      <point x="33.37258300203048" y="398.4716087690037"/>
      <point x="40.0" y="398.4716087690037" type="curve" smooth="yes"/>
      <point x="203.0" y="398.4716087690037" type="line"/>
      <point x="191.0" y="386.4716087690037" type="line"/>
      <point x="191.0" y="485.46655813512035" type="line" smooth="yes"/>
      <point x="191.0" y="492.0939751330899"/>
      <point x="196.37258300203047" y="497.46655813512035"/>
      <point x="203.0" y="497.46655813512035" type="curve" smooth="yes"/>
      <point x="334.0" y="497.46655813512035" type="line" smooth="yes"/>
      <point x="340.62741699796953" y="497.46655813512035"/>
      <point x="346.0" y="492.0939751330899"/>
      <point x="346.0" y="485.46655813512035" type="curve" smooth="yes"/>
      <point x="346.0" y="386.4716087690037" type="line"/>
      <point x="334.0" y="398.4716087690037" type="line"/>
      <point x="500.0" y="398.4716087690037" type="line" smooth="yes"/>
      <point x="506.62741699796953" y="398.4716087690037"/>
      <point x="512.0" y="393.0990257669732"/>
      <point x="512.0" y="386.4716087690037" type="curve" smooth="yes"/>
      <point x="512.0" y="296.6690475583121" type="line" smooth="yes"/>
      <point x="512.0" y="290.0416305603426"/>
      <point x="506.62741699796953" y="284.6690475583121"/>
      <point x="500.0" y="284.6690475583121" type="curve" smooth="yes"/>
      <point x="334.0" y="284.6690475583121" type="line"/>
      <point x="346.0" y="296.6690475583121" type="line"/>
      <point x="346.0" y="195.55277784863583" type="line" smooth="yes"/>
      <point x="346.0" y="188.9253608506663"/>
      <point x="340.62741699796953" y="183.55277784863583"/>
      <point x="334.0" y="183.55277784863583" type="curve" smooth="yes"/>
      <point x="203.0" y="183.55277784863583" type="line" smooth="yes"/>
      <point x="196.37258300203047" y="183.55277784863583"/>
      <point x="191.0" y="188.9253608506663"/>
      <point x="191.0" y="195.55277784863583" type="curve" smooth="yes"/>
      <point x="191.0" y="296.6690475583121" type="line"/>
      <point x="203.0" y="284.6690475583121" type="line"/>
    </contour>
    <contour>
      <point x="52.0" y="73.22330470336311" type="line"/>
      <point x="40.0" y="85.22330470336311" type="line"/>
      <point x="500.0" y="85.22330470336311" type="line"/>
      <point x="488.0" y="73.22330470336311" type="line"/>
      <point x="488.0" y="163.02586591405463" type="line"/>
      <point x="500.0" y="151.02586591405463" type="line"/>
      <point x="40.0" y="151.02586591405463" type="line"/>
      <point x="52.0" y="163.02586591405463" type="line"/>
    </contour>
    <contour>
      <point x="40.0" y="308.6690475583121" type="line"/>
      <point x="203.0" y="308.6690475583121" type="line" smooth="yes"/>
      <point x="209.62741699796953" y="308.6690475583121"/>
      <point x="215.0" y="303.29646455628165"/>
      <point x="215.0" y="296.6690475583121" type="curve" smooth="yes"/>
      <point x="215.0" y="195.55277784863583" type="line"/>
      <point x="203.0" y="207.55277784863583" type="line"/>
      <point x="334.0" y="207.55277784863583" type="line"/>
      <point x="322.0" y="195.55277784863583" type="line"/>
      <point x="322.0" y="296.6690475583121" type="line" smooth="yes"/>
      <point x="322.0" y="303.29646455628165"/>
      <point x="327.37258300203047" y="308.6690475583121"/>
      <point x="334.0" y="308.6690475583121" type="curve" smooth="yes"/>
      <point x="500.0" y="308.6690475583121" type="line"/>
      <point x="488.0" y="296.6690475583121" type="line"/>
      <point x="488.0" y="386.4716087690037" type="line"/>
      <point x="500.0" y="374.4716087690037" type="line"/>
      <point x="334.0" y="374.4716087690037" type="line" smooth="yes"/>
      <point x="327.37258300203047" y="374.4716087690037"/>
      <point x="322.0" y="379.84419177103416"/>
      <point x="322.0" y="386.4716087690037" type="curve" smooth="yes"/>
      <point x="322.0" y="485.46655813512035" type="line"/>
      <point x="334.0" y="473.46655813512035" type="line"/>
      <point x="203.0" y="473.46655813512035" type="line"/>
      <point x="215.0" y="485.46655813512035" type="line"/>
      <point x="215.0" y="386.4716087690037" type="line" smooth="yes"/>
      <point x="215.0" y="379.84419177103416"/>
      <point x="209.62741699796953" y="374.4716087690037"/>
      <point x="203.0" y="374.4716087690037" type="curve" smooth="yes"/>
      <point x="40.0" y="374.4716087690037" type="line"/>
      <point x="52.0" y="386.4716087690037" type="line"/>
      <point x="52.0" y="296.6690475583121" type="line"/>
    </contour>
    <contour>
      <point x="28.0" y="73.22330470336311" type="curve" smooth="yes"/>
      <point x="28.0" y="163.02586591405463" type="line" smooth="yes"/>
      <point x="28.0" y="169.65328291202417"/>
      <point x="33.37258300203048" y="175.02586591405463"/>
      <point x="40.0" y="175.02586591405463" type="curve" smooth="yes"/>
      <point x="500.0" y="175.02586591405463" type="line" smooth="yes"/>
      <point x="506.62741699796953" y="175.02586591405463"/>
      <point x="512.0" y="169.65328291202417"/>
      <point x="512.0" y="163.02586591405463" type="curve" smooth="yes"/>
      <point x="512.0" y="73.22330470336311" type="line" smooth="yes"/>
      <point x="512.0" y="66.5958877053936"/>
      <point x="506.62741699796953" y="61.22330470336311"/>
      <point x="500.0" y="61.22330470336311" type="curve" smooth="yes"/>
      <point x="40.0" y="61.22330470336311" type="line" smooth="yes"/>
      <point x="33.37258300203048" y="61.22330470336311"/>
      <point x="28.0" y="66.5958877053936"/>
    </contour>
  </outline>
</glyph>
<glyph name="mu.math" format="2">
  <advance width="593"/>
  <unicode hex="00B5"/>
  <outline>
    <contour>
      <point x="377.37774457201016" y="93.72422614316004" type="curve" smooth="yes"/>
      <point x="385.37005743104635" y="97.96279010815172"/>
      <point x="395.0" y="92.16948352535735"/>
      <point x="395.0" y="83.12279963997477" type="curve" smooth="yes"/>
      <point x="395.0" y="73.22330470336311" type="line"/>
      <point x="383.0" y="85.22330470336311" type="line"/>
      <point x="528.0" y="85.22330470336311" type="line"/>
      <point x="516.0" y="73.22330470336311" type="line"/>
      <point x="516.0" y="438.79751057680824" type="line"/>
      <point x="528.0" y="426.79751057680824" type="line"/>
      <point x="383.0" y="426.79751057680824" type="line"/>
      <point x="395.0" y="438.79751057680824" type="line"/>
      <point x="395.0" y="218.18019484660536" type="line" smooth="yes"/>
      <point x="395.0" y="172.01115593679847"/>
      <point x="356.58385926825986" y="143.2476913210026"/>
      <point x="289.0" y="143.2476913210026" type="curve" smooth="yes"/>
      <point x="220.442217527955" y="143.2476913210026"/>
      <point x="190.0" y="175.35825046123784"/>
      <point x="190.0" y="218.18019484660536" type="curve" smooth="yes"/>
      <point x="190.0" y="438.79751057680824" type="line"/>
      <point x="202.0" y="426.79751057680824" type="line"/>
      <point x="57.0" y="426.79751057680824" type="line"/>
      <point x="69.0" y="438.79751057680824" type="line"/>
      <point x="69.0" y="-39.913780286484496" type="line"/>
      <point x="57.0" y="-27.913780286484496" type="line"/>
      <point x="202.0" y="-27.913780286484496" type="line"/>
      <point x="190.0" y="-39.913780286484496" type="line"/>
      <point x="190.0" y="83.82990642116133" type="line" smooth="yes"/>
      <point x="190.0" y="92.9056606391068"/>
      <point x="199.686031452416" y="98.69647509672822"/>
      <point x="207.6805067049147" y="94.40023487279512" type="curve" smooth="yes"/>
      <point x="254.06016853488745" y="69.47575109706952"/>
      <point x="332.85326921523625" y="70.11155730299896"/>
    </contour>
    <contour>
      <point x="388.62225542798984" y="72.5213731367895" type="line"/>
      <point x="337.1416335053794" y="45.21965049090541"/>
      <point x="249.94514113113806" y="44.441092954427646"/>
      <point x="196.3194932950853" y="73.25957796952753" type="curve"/>
      <point x="214.0" y="83.82990642116133" type="line"/>
      <point x="214.0" y="-39.913780286484496" type="line" smooth="yes"/>
      <point x="214.0" y="-46.541197284454014"/>
      <point x="208.62741699796953" y="-51.913780286484496"/>
      <point x="202.0" y="-51.913780286484496" type="curve" smooth="yes"/>
      <point x="57.0" y="-51.913780286484496" type="line" smooth="yes"/>
      <point x="50.37258300203048" y="-51.913780286484496"/>
      <point x="45.0" y="-46.541197284454014"/>
      <point x="45.0" y="-39.913780286484496" type="curve" smooth="yes"/>
      <point x="45.0" y="438.79751057680824" type="line" smooth="yes"/>
      <point x="45.0" y="445.42492757477777"/>
      <point x="50.37258300203048" y="450.79751057680824"/>
      <point x="57.0" y="450.79751057680824" type="curve" smooth="yes"/>
      <point x="202.0" y="450.79751057680824" type="line" smooth="yes"/>
      <point x="208.62741699796953" y="450.79751057680824"/>
      <point x="214.0" y="445.42492757477777"/>
      <point x="214.0" y="438.79751057680824" type="curve" smooth="yes"/>
      <point x="214.0" y="218.18019484660536" type="line" smooth="yes"/>
      <point x="214.0" y="186.1903081991046"/>
      <point x="237.78430389923744" y="167.2476913210026"/>
      <point x="289.0" y="167.2476913210026" type="curve" smooth="yes"/>
      <point x="339.1115434485073" y="167.2476913210026"/>
      <point x="371.0" y="183.94714239363356"/>
      <point x="371.0" y="218.18019484660536" type="curve" smooth="yes"/>
      <point x="371.0" y="438.79751057680824" type="line" smooth="yes"/>
      <point x="371.0" y="445.42492757477777"/>
      <point x="376.37258300203047" y="450.79751057680824"/>
      <point x="383.0" y="450.79751057680824" type="curve" smooth="yes"/>
      <point x="528.0" y="450.79751057680824" type="line" smooth="yes"/>
      <point x="534.6274169979695" y="450.79751057680824"/>
      <point x="540.0" y="445.42492757477777"/>
      <point x="540.0" y="438.79751057680824" type="curve" smooth="yes"/>
      <point x="540.0" y="73.22330470336311" type="line" smooth="yes"/>
      <point x="540.0" y="66.5958877053936"/>
      <point x="534.6274169979695" y="61.22330470336311"/>
      <point x="528.0" y="61.22330470336311" type="curve" smooth="yes"/>
      <point x="383.0" y="61.22330470336311" type="line" smooth="yes"/>
      <point x="376.37258300203047" y="61.22330470336311"/>
      <point x="371.0" y="66.5958877053936"/>
      <point x="371.0" y="73.22330470336311" type="curve" smooth="yes"/>
      <point x="371.0" y="83.12279963997477" type="line"/>
    </contour>
  </outline>
</glyph>
<glyph name="guillemetright" format="2">
  <advance width="752"/>
  <unicode hex="00BB"/>
  <outline>
    <contour>
      <point x="488.3806410433432" y="295.8257103175898" type="curve"/>
      <point x="488.3806410433432" y="279.12760848818425" type="line"/>
      <point x="437.5639557129885" y="331.5895297681787"/>
      <point x="387.81993132089474" y="398.34524032434626"/>
      <point x="349.1992504698252" y="478.11610692817345" type="curve" smooth="yes"/>
      <point x="343.8299715002397" y="489.2063318284856"/>
      <point x="356.66171244555903" y="500.2176437017029"/>
      <point x="366.8082455056942" y="493.226927582998" type="curve" smooth="yes"/>
      <point x="483.0596126877044" y="413.1325444509197"/>
      <point x="604.2313368428688" y="354.8923635346446"/>
      <point x="751.284348320967" y="298.6857788805546" type="curve" smooth="yes"/>
      <point x="761.5718838930109" y="294.7536782509924"/>
      <point x="761.5718838930109" y="280.1996405547817"/>
      <point x="751.284348320967" y="276.26753992521947" type="curve" smooth="yes"/>
      <point x="604.2313368428688" y="220.06095527112936"/>
      <point x="483.0596126877044" y="161.82077435485442"/>
      <point x="366.8082455056942" y="81.7263912227761" type="curve" smooth="yes"/>
      <point x="356.66171244555966" y="74.7356751040716"/>
      <point x="343.82997150024005" y="85.74698697728917"/>
      <point x="349.1992504698252" y="96.83721187760061" type="curve" smooth="yes"/>
      <point x="387.81993132089474" y="176.60807848142775"/>
      <point x="437.5639557129885" y="243.36378903759535"/>
    </contour>
    <contour>
      <point x="168.3806410433432" y="295.8257103175898" type="curve"/>
      <point x="168.3806410433432" y="279.12760848818425" type="line"/>
      <point x="117.56395571298847" y="331.5895297681787"/>
      <point x="67.81993132089478" y="398.34524032434626"/>
      <point x="29.19925046982521" y="478.11610692817345" type="curve" smooth="yes"/>
      <point x="23.82997150023989" y="489.2063318284852"/>
      <point x="36.661712445559345" y="500.2176437017027"/>
      <point x="46.80824550569416" y="493.226927582998" type="curve" smooth="yes"/>
      <point x="163.05961268770434" y="413.1325444509197"/>
      <point x="284.2313368428686" y="354.8923635346446"/>
      <point x="431.284348320967" y="298.6857788805546" type="curve" smooth="yes"/>
      <point x="441.5718838930109" y="294.7536782509924"/>
      <point x="441.5718838930109" y="280.19964055478164"/>
      <point x="431.284348320967" y="276.26753992521947" type="curve" smooth="yes"/>
      <point x="284.2313368428686" y="220.06095527112936"/>
      <point x="163.05961268770437" y="161.82077435485442"/>
      <point x="46.80824550569416" y="81.7263912227761" type="curve" smooth="yes"/>
      <point x="36.6617124455594" y="74.73567510407143"/>
      <point x="23.82997150023992" y="85.7469869772889"/>
      <point x="29.199250469825213" y="96.83721187760061" type="curve" smooth="yes"/>
      <point x="67.81993132089478" y="176.60807848142775"/>
      <point x="117.56395571298847" y="243.36378903759535"/>
    </contour>
    <contour>
      <point x="505.6193589566568" y="279.12760848818425" type="curve" smooth="yes"/>
      <point x="456.4323869061594" y="228.34816392309207"/>
      <point x="408.1828482885528" y="163.59153024295253"/>
      <point x="370.8007495301748" y="86.3789501508261" type="curve"/>
      <point x="353.1917544943058" y="101.48977080565061" type="line"/>
      <point x="470.97552295970354" y="182.6399413962245"/>
      <point x="593.7242180646838" y="241.73829074681856"/>
      <point x="742.715651679033" y="298.6857788805546" type="curve"/>
      <point x="742.715651679033" y="276.26753992521947" type="line"/>
      <point x="593.7242180646838" y="333.2150280589555"/>
      <point x="470.97552295970354" y="392.31337740954956"/>
      <point x="353.1917544943058" y="473.4635480001234" type="curve"/>
      <point x="370.8007495301748" y="488.57436865494793" type="line"/>
      <point x="408.1828482885528" y="411.36178856282174"/>
      <point x="456.4323869061594" y="346.605154882682"/>
      <point x="505.6193589566568" y="295.8257103175898" type="curve" smooth="yes"/>
      <point x="510.1268803477811" y="291.172253862259"/>
      <point x="510.1268803477811" y="283.78106494351505"/>
    </contour>
    <contour>
      <point x="185.6193589566568" y="279.12760848818425" type="curve" smooth="yes"/>
      <point x="136.43238690615948" y="228.34816392309207"/>
      <point x="88.18284828855269" y="163.59153024295253"/>
      <point x="50.800749530174784" y="86.3789501508261" type="curve"/>
      <point x="33.19175449430584" y="101.48977080565061" type="line"/>
      <point x="150.97552295970354" y="182.6399413962245"/>
      <point x="273.7242180646837" y="241.73829074681856"/>
      <point x="422.715651679033" y="298.6857788805546" type="curve"/>
      <point x="422.715651679033" y="276.26753992521947" type="line"/>
      <point x="273.7242180646837" y="333.2150280589555"/>
      <point x="150.97552295970357" y="392.31337740954956"/>
      <point x="33.19175449430584" y="473.4635480001234" type="curve"/>
      <point x="50.80074953017479" y="488.57436865494793" type="line"/>
      <point x="88.18284828855269" y="411.36178856282174"/>
      <point x="136.43238690615948" y="346.605154882682"/>
      <point x="185.6193589566568" y="295.8257103175898" type="curve" smooth="yes"/>
      <point x="190.12688034778108" y="291.172253862259"/>
      <point x="190.12688034778108" y="283.78106494351505"/>
    </contour>
  </outline>
</glyph>
<glyph name="Ccedilla" format="2">
  <advance width="610"/>
  <unicode hex="00C7"/>
  <outline>
    <contour>
      <point x="201.0" y="313.6396103067893" type="curve" smooth="yes"/>
      <point x="200.99999999999997" y="221.6925402670731"/>
      <point x="270.9028136592948" y="167.95479810218916"/>
      <point x="371.0" y="167.95479810218916" type="curve" smooth="yes"/>
      <point x="434.6133877323312" y="167.95479810218916"/>
      <point x="495.4681837918681" y="187.77448873112328"/>
      <point x="543.6601441951494" y="217.76212729097702" type="curve" smooth="yes"/>
      <point x="551.653538987567" y="222.73604891390636"/>
      <point x="562.0" y="216.98816994449527"/>
      <point x="562.0" y="207.57359312880715" type="curve" smooth="yes"/>
      <point x="562.0" y="88.77965388946714" type="line" smooth="yes"/>
      <point x="562.0" y="83.5724918966699"/>
      <point x="558.6417709564658" y="78.95955558266724"/>
      <point x="553.6864016370636" y="77.35991470810863" type="curve" smooth="yes"/>
      <point x="506.6296050551148" y="62.169528202798865"/>
      <point x="447.4787697304238" y="53.4622667635541"/>
      <point x="388.14628708361886" y="52.73891502520601" type="curve"/>
      <point x="396.82728629413936" y="72.8669234196226" type="line"/>
      <point x="421.34170184220494" y="46.24637673222711"/>
      <point x="509.0" y="43.72397276132947"/>
      <point x="509.0" y="-30.014285349872864" type="curve" smooth="yes"/>
      <point x="509.0" y="-117.20996367913311"/>
      <point x="387.87478577840415" y="-159.2647771327091"/>
      <point x="198.5780366303929" y="-120.25618419593478" type="curve" smooth="yes"/>
      <point x="193.00133185105483" y="-119.10698640122956"/>
      <point x="189.0" y="-114.19702002095032"/>
      <point x="189.0" y="-108.50313806157959" type="curve" smooth="yes"/>
      <point x="189.0" y="-19.40768363207462" type="line" smooth="yes"/>
      <point x="189.0" y="-10.451610205920282"/>
      <point x="198.45572804765604" y="-4.651738001679267"/>
      <point x="206.43901709978343" y="-8.711091044326709" type="curve" smooth="yes"/>
      <point x="269.65345512405975" y="-40.85444945932899"/>
      <point x="349.0" y="-54.73640457898096"/>
      <point x="349.0" y="-32.13560569343247" type="curve" smooth="yes"/>
      <point x="349.0" y="0.2794915003262702"/>
      <point x="261.3743019254726" y="-30.535685849548027"/>
      <point x="252.04660211779793" y="74.99519074051855" type="curve"/>
      <point x="261.559887044563" y="64.3024404126788" type="line"/>
      <point x="112.38656933142695" y="95.28301041363169"/>
      <point x="25.00000000000002" y="189.04074935967498"/>
      <point x="25.0" y="312.2253967444162" type="curve" smooth="yes"/>
      <point x="24.99999999999998" y="464.7332975594166"/>
      <point x="159.21050721614063" y="574.541197284454"/>
      <point x="378.0" y="574.541197284454" type="curve" smooth="yes"/>
      <point x="440.3390495287278" y="574.541197284454"/>
      <point x="503.5554879262395" y="565.8348409369875"/>
      <point x="553.6311178755456" y="549.9370045042217" type="curve" smooth="yes"/>
      <point x="558.6145706665907" y="548.3548752844265"/>
      <point x="562.0" y="543.7281358007045"/>
      <point x="562.0" y="538.4995667241114" type="curve" smooth="yes"/>
      <point x="562.0" y="419.7056274847714" type="line" smooth="yes"/>
      <point x="562.0" y="410.3624027809499"/>
      <point x="551.7936110586692" y="404.6033492713256"/>
      <point x="543.7959640545014" y="409.43382443044055" type="curve" smooth="yes"/>
      <point x="497.53168206735137" y="437.37685127030426"/>
      <point x="433.6133877323312" y="460.0315292925759"/>
      <point x="370.0" y="460.0315292925759" type="curve" smooth="yes"/>
      <point x="269.9028136592948" y="460.0315292925759"/>
      <point x="201.00000000000003" y="405.58668034650555"/>
    </contour>
    <contour>
      <point x="177.0" y="313.6396103067893" type="curve" smooth="yes"/>
      <point x="177.00000000000003" y="418.3180061822931"/>
      <point x="256.0429930690509" y="484.0315292925759"/>
      <point x="370.0" y="484.0315292925759" type="curve" smooth="yes"/>
      <point x="438.3681385785561" y="484.0315292925759"/>
      <point x="506.4817533429124" y="460.0090449428287"/>
      <point x="556.2040359454986" y="429.9774305391023" type="curve"/>
      <point x="538.0" y="419.7056274847714" type="line"/>
      <point x="538.0" y="538.4995667241114" type="line"/>
      <point x="546.3688821244544" y="527.0621289440012" type="line"/>
      <point x="498.45276114421864" y="542.2743719973103"/>
      <point x="437.6506812202935" y="550.541197284454"/>
      <point x="378.0" y="550.541197284454" type="curve" smooth="yes"/>
      <point x="174.9348297053725" y="550.541197284454"/>
      <point x="48.99999999999998" y="453.77260934693504"/>
      <point x="49.0" y="312.2253967444162" type="curve" smooth="yes"/>
      <point x="49.00000000000002" y="199.25777318092517"/>
      <point x="129.63933819247717" y="116.21204234333995"/>
      <point x="266.440112955437" y="87.80102324353979" type="curve" smooth="yes"/>
      <point x="271.62229462844033" y="86.72477888201884"/>
      <point x="275.4873963449777" y="82.38047846793546"/>
      <point x="275.95339788220207" y="77.10827291570004" type="curve" smooth="yes"/>
      <point x="282.7583858135488" y="0.11862312133452038"/>
      <point x="373.0" y="12.296302381770602"/>
      <point x="373.0" y="-32.13560569343247" type="curve" smooth="yes"/>
      <point x="373.0" y="-71.34585349598194"/>
      <point x="305.2320521479365" y="-85.86996198344843"/>
      <point x="195.56098290021657" y="-30.104276219822538" type="curve"/>
      <point x="213.0" y="-19.407683632074626" type="line"/>
      <point x="213.0" y="-108.50313806157959" type="line"/>
      <point x="203.4219633696071" y="-96.7500919272244" type="line"/>
      <point x="363.50003350174353" y="-129.7375589809053"/>
      <point x="485.0" y="-103.7509764110419"/>
      <point x="485.0" y="-30.014285349872864" type="curve" smooth="yes"/>
      <point x="485.0" y="26.375990397167403"/>
      <point x="411.2303807962354" y="21.797254206095484"/>
      <point x="379.17271370586064" y="56.609123238626466" type="curve" smooth="yes"/>
      <point x="372.1379219668934" y="64.24830197230256"/>
      <point x="377.46962318325126" y="76.61053404223708"/>
      <point x="387.85371291638114" y="76.73713163304305" type="curve" smooth="yes"/>
      <point x="444.54239555608007" y="77.42825149357863"/>
      <point x="501.3536086831752" y="85.68587599957864"/>
      <point x="546.3135983629364" y="100.19939307082565" type="curve"/>
      <point x="538.0" y="88.77965388946714" type="line"/>
      <point x="538.0" y="207.57359312880715" type="line"/>
      <point x="556.3398558048506" y="197.38505896663727" type="line"/>
      <point x="504.5458114271566" y="165.1560093626382"/>
      <point x="439.3681385785561" y="143.95479810218916"/>
      <point x="371.0" y="143.95479810218916" type="curve" smooth="yes"/>
      <point x="257.0429930690509" y="143.95479810218916"/>
      <point x="176.99999999999997" y="208.9612144312854"/>
    </contour>
  </outline>
</glyph>
<glyph name="multiply" format="2">
  <advance width="535"/>
  <unicode hex="00D7"/>
  <outline>
    <contour>
      <point x="149.9282032302755" y="125.65074247664657" type="line" smooth="yes"/>
      <point x="145.77599484637403" y="122.7146877714902"/>
      <point x="140.22400515362597" y="122.7146877714902"/>
      <point x="136.0717967697245" y="125.65074247664657" type="curve" smooth="yes"/>
      <point x="41.07179676972449" y="192.8258866893686" type="line" smooth="yes"/>
      <point x="34.3094010767585" y="197.60762254093154"/>
      <point x="34.30940107675849" y="207.64006878007106"/>
      <point x="41.071796769724486" y="212.42180463163402" type="curve" smooth="yes"/>
      <point x="166.0717967697245" y="300.81015227995243" type="line"/>
      <point x="166.0717967697245" y="281.21423433768706" type="line"/>
      <point x="41.07179676972449" y="369.60258198600553" type="line" smooth="yes"/>
      <point x="34.30940107675852" y="374.38431783756846"/>
      <point x="34.30940107675851" y="384.416764076708"/>
      <point x="41.071796769724486" y="389.1984999282709" type="curve" smooth="yes"/>
      <point x="136.0717967697245" y="456.3736441409929" type="line" smooth="yes"/>
      <point x="140.224005153626" y="459.3096988461493"/>
      <point x="145.775994846374" y="459.3096988461493"/>
      <point x="149.9282032302755" y="456.3736441409929" type="curve" smooth="yes"/>
      <point x="274.9282032302755" y="367.9852964926745" type="line"/>
      <point x="261.0717967697245" y="367.9852964926745" type="line"/>
      <point x="386.0717967697245" y="456.3736441409929" type="line" smooth="yes"/>
      <point x="390.22400515362585" y="459.30969884614916"/>
      <point x="395.77599484637415" y="459.30969884614916"/>
      <point x="399.9282032302755" y="456.3736441409929" type="curve" smooth="yes"/>
      <point x="494.9282032302755" y="389.1984999282709" type="line" smooth="yes"/>
      <point x="501.6905989232416" y="384.41676407670786"/>
      <point x="501.6905989232416" y="374.3843178375686"/>
      <point x="494.9282032302755" y="369.60258198600553" type="curve" smooth="yes"/>
      <point x="369.9282032302755" y="281.21423433768706" type="line"/>
      <point x="369.9282032302755" y="300.81015227995243" type="line"/>
      <point x="494.9282032302755" y="212.42180463163402" type="line" smooth="yes"/>
      <point x="501.6905989232416" y="207.64006878007098"/>
      <point x="501.6905989232416" y="197.60762254093163"/>
      <point x="494.9282032302755" y="192.8258866893686" type="curve" smooth="yes"/>
      <point x="399.9282032302755" y="125.65074247664657" type="line" smooth="yes"/>
      <point x="395.77599484637415" y="122.71468777149028"/>
      <point x="390.22400515362585" y="122.71468777149028"/>
      <point x="386.0717967697245" y="125.65074247664657" type="curve" smooth="yes"/>
      <point x="261.0717967697245" y="214.039090124965" type="line"/>
      <point x="274.9282032302755" y="214.039090124965" type="line"/>
    </contour>
    <contour>
      <point x="136.0717967697245" y="145.246660418912" type="line"/>
      <point x="261.0717967697245" y="233.63500806723044" type="line" smooth="yes"/>
      <point x="265.22400515362585" y="236.57106277238674"/>
      <point x="270.77599484637415" y="236.57106277238674"/>
      <point x="274.9282032302755" y="233.63500806723044" type="curve" smooth="yes"/>
      <point x="399.9282032302755" y="145.246660418912" type="line"/>
      <point x="386.0717967697245" y="145.246660418912" type="line"/>
      <point x="481.0717967697245" y="212.42180463163402" type="line"/>
      <point x="481.0717967697245" y="192.8258866893686" type="line"/>
      <point x="356.0717967697245" y="281.21423433768706" type="line" smooth="yes"/>
      <point x="349.3094010767584" y="285.9959701892501"/>
      <point x="349.3094010767584" y="296.0284164283894"/>
      <point x="356.0717967697245" y="300.81015227995243" type="curve" smooth="yes"/>
      <point x="481.0717967697245" y="389.1984999282709" type="line"/>
      <point x="481.0717967697245" y="369.60258198600553" type="line"/>
      <point x="386.0717967697245" y="436.7777261987275" type="line"/>
      <point x="399.9282032302755" y="436.7777261987275" type="line"/>
      <point x="274.9282032302755" y="348.3893785504091" type="line" smooth="yes"/>
      <point x="270.77599484637415" y="345.45332384525284"/>
      <point x="265.22400515362585" y="345.45332384525284"/>
      <point x="261.0717967697245" y="348.3893785504091" type="curve" smooth="yes"/>
      <point x="136.0717967697245" y="436.7777261987275" type="line"/>
      <point x="149.9282032302755" y="436.7777261987275" type="line"/>
      <point x="54.928203230275514" y="369.60258198600553" type="line"/>
      <point x="54.92820323027551" y="389.1984999282709" type="line"/>
      <point x="179.9282032302755" y="300.81015227995243" type="line" smooth="yes"/>
      <point x="186.69059892324148" y="296.0284164283895"/>
      <point x="186.69059892324148" y="285.99597018925"/>
      <point x="179.9282032302755" y="281.21423433768706" type="curve" smooth="yes"/>
      <point x="54.928203230275514" y="192.8258866893686" type="line"/>
      <point x="54.92820323027551" y="212.42180463163402" type="line"/>
      <point x="149.9282032302755" y="145.246660418912" type="line"/>
    </contour>
  </outline>
</glyph>
<glyph name="divide" format="2">
  <advance width="540"/>
  <unicode hex="00F7"/>
  <outline>
    <contour>
      <point x="52.0" y="247.87867965644037" type="line"/>
      <point x="40.0" y="259.87867965644034" type="line"/>
      <point x="500.0" y="259.87867965644034" type="line"/>
      <point x="488.0" y="247.87867965644037" type="line"/>
      <point x="488.0" y="337.6812408671319" type="line"/>
      <point x="500.0" y="325.6812408671319" type="line"/>
      <point x="40.0" y="325.6812408671319" type="line"/>
      <point x="52.0" y="337.6812408671319" type="line"/>
    </contour>
    <contour>
      <point x="194.0" y="93.04310985675775" type="line" smooth="yes"/>
      <point x="187.37258300203047" y="93.04310985675775"/>
      <point x="182.0" y="98.41569285878823"/>
      <point x="182.0" y="105.04310985675775" type="curve" smooth="yes"/>
      <point x="182.0" y="211.81623381592644" type="line" smooth="yes"/>
      <point x="182.0" y="218.44365081389597"/>
      <point x="187.37258300203047" y="223.81623381592644"/>
      <point x="194.0" y="223.81623381592644" type="curve" smooth="yes"/>
      <point x="345.0" y="223.81623381592644" type="line" smooth="yes"/>
      <point x="351.62741699796953" y="223.81623381592644"/>
      <point x="357.0" y="218.44365081389597"/>
      <point x="357.0" y="211.81623381592644" type="curve" smooth="yes"/>
      <point x="357.0" y="105.04310985675775" type="line" smooth="yes"/>
      <point x="357.0" y="98.41569285878823"/>
      <point x="351.62741699796953" y="93.04310985675775"/>
      <point x="345.0" y="93.04310985675775" type="curve" smooth="yes"/>
    </contour>
    <contour>
      <point x="194.0" y="361.7436867076458" type="line" smooth="yes"/>
      <point x="187.37258300203047" y="361.7436867076458"/>
      <point x="182.0" y="367.11626970967626"/>
      <point x="182.0" y="373.7436867076458" type="curve" smooth="yes"/>
      <point x="182.0" y="480.51681066681454" type="line" smooth="yes"/>
      <point x="182.0" y="487.14422766478407"/>
      <point x="187.37258300203047" y="492.51681066681454"/>
      <point x="194.0" y="492.51681066681454" type="curve" smooth="yes"/>
      <point x="345.0" y="492.51681066681454" type="line" smooth="yes"/>
      <point x="351.62741699796953" y="492.51681066681454"/>
      <point x="357.0" y="487.14422766478407"/>
      <point x="357.0" y="480.51681066681454" type="curve" smooth="yes"/>
      <point x="357.0" y="373.7436867076458" type="line" smooth="yes"/>
      <point x="357.0" y="367.11626970967626"/>
      <point x="351.62741699796953" y="361.7436867076458"/>
      <point x="345.0" y="361.7436867076458" type="curve" smooth="yes"/>
    </contour>
    <contour>
      <point x="28.0" y="247.87867965644037" type="curve" smooth="yes"/>
      <point x="28.0" y="337.6812408671319" type="line" smooth="yes"/>
      <point x="28.0" y="344.30865786510145"/>
      <point x="33.37258300203048" y="349.6812408671319"/>
      <point x="40.0" y="349.6812408671319" type="curve" smooth="yes"/>
      <point x="500.0" y="349.6812408671319" type="line" smooth="yes"/>
      <point x="506.62741699796953" y="349.6812408671319"/>
      <point x="512.0" y="344.30865786510145"/>
      <point x="512.0" y="337.6812408671319" type="curve" smooth="yes"/>
      <point x="512.0" y="247.87867965644037" type="line" smooth="yes"/>
      <point x="512.0" y="241.25126265847084"/>
      <point x="506.62741699796953" y="235.87867965644037"/>
      <point x="500.0" y="235.87867965644037" type="curve" smooth="yes"/>
      <point x="40.0" y="235.87867965644037" type="line" smooth="yes"/>
      <point x="33.37258300203048" y="235.87867965644037"/>
      <point x="28.0" y="241.25126265847084"/>
    </contour>
    <contour>
      <point x="194.0" y="117.04310985675775" type="line"/>
      <point x="345.0" y="117.04310985675775" type="line"/>
      <point x="333.0" y="105.04310985675775" type="line"/>
      <point x="333.0" y="211.81623381592644" type="line"/>
      <point x="345.0" y="199.81623381592644" type="line"/>
      <point x="194.0" y="199.81623381592644" type="line"/>
      <point x="206.0" y="211.81623381592644" type="line"/>
      <point x="206.0" y="105.04310985675775" type="line"/>
    </contour>
    <contour>
      <point x="194.0" y="385.7436867076458" type="line"/>
      <point x="345.0" y="385.7436867076458" type="line"/>
      <point x="333.0" y="373.7436867076458" type="line"/>
      <point x="333.0" y="480.51681066681454" type="line"/>
      <point x="345.0" y="468.51681066681454" type="line"/>
      <point x="194.0" y="468.51681066681454" type="line"/>
      <point x="206.0" y="480.51681066681454" type="line"/>
      <point x="206.0" y="373.7436867076458" type="line"/>
    </contour>
  </outline>
</glyph>
<glyph name="tilde" format="2">
  <advance width="565"/>
  <unicode hex="02DC"/>
  <outline>
    <contour>
      <point x="388.0" y="627.5950211536165" type="curve" smooth="yes"/>
      <point x="388.0" y="634.222438151586"/>
      <point x="393.37258300203047" y="639.5950211536165"/>
      <point x="400.0" y="639.5950211536165" type="curve" smooth="yes"/>
      <point x="485.0" y="639.5950211536165" type="line" smooth="yes"/>
      <point x="490.7474263345275" y="639.5950211536165"/>
      <point x="495.6878503762784" y="635.5198406345326"/>
      <point x="496.78096352023056" y="629.8773223026758" type="curve" smooth="yes"/>
      <point x="518.371366146862" y="518.4302655300509"/>
      <point x="461.7592111631838" y="467.10259710444143"/>
      <point x="370.0" y="467.10259710444143" type="curve" smooth="yes"/>
      <point x="285.3561414385629" y="467.10259710444143"/>
      <point x="247.71199019577315" y="527.9137802864846"/>
      <point x="205.0" y="527.9137802864846" type="curve" smooth="yes"/>
      <point x="186.28057150883058" y="527.9137802864846"/>
      <point x="177.77675254704704" y="515.2960065350029"/>
      <point x="176.99677635991497" y="481.6528930188114" type="curve" smooth="yes"/>
      <point x="176.84568043994037" y="475.1355950917679"/>
      <point x="171.51904918273195" y="469.93102422918764"/>
      <point x="165.0" y="469.93102422918764" type="curve" smooth="yes"/>
      <point x="80.0" y="469.93102422918764" type="line" smooth="yes"/>
      <point x="74.25257366547248" y="469.93102422918764"/>
      <point x="69.31214962372161" y="474.0062047482716"/>
      <point x="68.21903647976946" y="479.6487230801284" type="curve" smooth="yes"/>
      <point x="46.60703805291068" y="591.2072547712899"/>
      <point x="104.31020652853601" y="642.4234482783626"/>
      <point x="194.0" y="642.4234482783626" type="curve" smooth="yes"/>
      <point x="280.7000193622963" y="642.4234482783626"/>
      <point x="317.245265758669" y="581.6122650963196"/>
      <point x="360.0" y="581.6122650963196" type="curve" smooth="yes"/>
      <point x="378.6262970061387" y="581.6122650963196"/>
      <point x="388.0" y="595.2168513884212"/>
    </contour>
    <contour>
      <point x="412.0" y="627.5950211536165" type="line"/>
      <point x="412.0" y="576.9869426015113"/>
      <point x="389.11347703892756" y="557.6122650963196"/>
      <point x="360.0" y="557.6122650963196" type="curve" smooth="yes"/>
      <point x="310.788236892133" y="557.6122650963196"/>
      <point x="269.322139289269" y="618.4234482783626"/>
      <point x="194.0" y="618.4234482783626" type="curve" smooth="yes"/>
      <point x="117.69764445673056" y="618.4234482783626"/>
      <point x="73.39485375076804" y="579.1202085309252"/>
      <point x="91.78096352023054" y="484.2133253782469" type="curve"/>
      <point x="80.0" y="493.93102422918764" type="line"/>
      <point x="165.0" y="493.93102422918764" type="line"/>
      <point x="153.00322364008503" y="482.20915543956386" type="line"/>
      <point x="154.21082337377507" y="534.2971750392909"/>
      <point x="176.01760639144015" y="551.9137802864846"/>
      <point x="205.0" y="551.9137802864846" type="curve" smooth="yes"/>
      <point x="254.2862973902039" y="551.9137802864846"/>
      <point x="296.6467994463896" y="491.10259710444143"/>
      <point x="370.0" y="491.10259710444143" type="curve" smooth="yes"/>
      <point x="448.2191661315557" y="491.10259710444143"/>
      <point x="491.6235461577825" y="530.3108587410806"/>
      <point x="473.21903647976944" y="625.3127200045571" type="curve"/>
      <point x="485.0" y="615.5950211536165" type="line"/>
      <point x="400.0" y="615.5950211536165" type="line"/>
    </contour>
  </outline>
</glyph>
<glyph name="guilsinglleft" format="2">
  <advance width="432"/>
  <unicode hex="2039"/>
  <outline>
    <contour>
      <point x="263.6193589566568" y="279.12760848818425" type="curve"/>
      <point x="263.6193589566568" y="295.8257103175898" type="line"/>
      <point x="314.4360442870115" y="243.36378903759532"/>
      <point x="364.18006867910526" y="176.60807848142775"/>
      <point x="402.8007495301748" y="96.83721187760061" type="curve" smooth="yes"/>
      <point x="408.17002849976035" y="85.7469869772884"/>
      <point x="395.3382875544411" y="74.73567510407112"/>
      <point x="385.1917544943058" y="81.7263912227761" type="curve" smooth="yes"/>
      <point x="268.9403873122956" y="161.82077435485442"/>
      <point x="147.7686631571314" y="220.06095527112936"/>
      <point x="0.7156516790329857" y="276.26753992521947" type="curve" smooth="yes"/>
      <point x="-9.571883893010996" y="280.1996405547817"/>
      <point x="-9.571883893010993" y="294.7536782509924"/>
      <point x="0.715651679032991" y="298.6857788805546" type="curve" smooth="yes"/>
      <point x="147.7686631571314" y="354.8923635346446"/>
      <point x="268.9403873122956" y="413.1325444509197"/>
      <point x="385.1917544943058" y="493.226927582998" type="curve" smooth="yes"/>
      <point x="395.33828755444034" y="500.21764370170246"/>
      <point x="408.17002849976" y="489.2063318284849"/>
      <point x="402.8007495301748" y="478.11610692817345" type="curve" smooth="yes"/>
      <point x="364.18006867910526" y="398.34524032434626"/>
      <point x="314.4360442870115" y="331.5895297681787"/>
    </contour>
    <contour>
      <point x="246.38064104334316" y="295.8257103175898" type="curve" smooth="yes"/>
      <point x="295.5676130938406" y="346.605154882682"/>
      <point x="343.8171517114472" y="411.36178856282174"/>
      <point x="381.1992504698252" y="488.57436865494793" type="curve"/>
      <point x="398.8082455056942" y="473.4635480001234" type="line"/>
      <point x="281.02447704029646" y="392.31337740954956"/>
      <point x="158.27578193531636" y="333.2150280589555"/>
      <point x="9.284348320967009" y="276.26753992521947" type="curve"/>
      <point x="9.284348320967014" y="298.6857788805546" type="line"/>
      <point x="158.27578193531636" y="241.73829074681856"/>
      <point x="281.02447704029646" y="182.6399413962245"/>
      <point x="398.8082455056942" y="101.48977080565061" type="curve"/>
      <point x="381.1992504698252" y="86.3789501508261" type="line"/>
      <point x="343.8171517114472" y="163.59153024295253"/>
      <point x="295.5676130938406" y="228.3481639230921"/>
      <point x="246.38064104334316" y="279.12760848818425" type="curve" smooth="yes"/>
      <point x="241.8731196522189" y="283.78106494351505"/>
      <point x="241.8731196522189" y="291.172253862259"/>
    </contour>
  </outline>
</glyph>
<glyph name="Euro" format="2">
  <advance width="621"/>
  <unicode hex="20AC"/>
  <outline>
    <contour>
      <point x="35.0" y="215.37258300203047" type="line" smooth="yes"/>
      <point x="28.37258300203048" y="215.37258300203047"/>
      <point x="22.999999999999996" y="220.74516600406093"/>
      <point x="23.0" y="227.37258300203047" type="curve"/>
      <point x="23.0" y="294.5477272147525" type="line"/>
      <point x="23.000000000000004" y="301.17514421272205"/>
      <point x="28.37258300203048" y="306.5477272147525"/>
      <point x="35.0" y="306.5477272147525" type="curve" smooth="yes"/>
      <point x="97.0" y="306.5477272147525" type="line"/>
      <point x="85.14545992111344" y="292.6849659530573" type="line"/>
      <point x="82.95041820653596" y="306.6541258853432"/>
      <point x="82.95041820653596" y="321.3322015094219"/>
      <point x="85.14545992111344" y="335.3013614417078" type="curve"/>
      <point x="97.0" y="321.4386001800126" type="line"/>
      <point x="35.0" y="321.4386001800126" type="line" smooth="yes"/>
      <point x="28.37258300203048" y="321.4386001800126"/>
      <point x="22.999999999999996" y="326.81118318204307"/>
      <point x="23.0" y="333.4386001800126" type="curve"/>
      <point x="23.0" y="400.61374439273465" type="line"/>
      <point x="23.000000000000004" y="407.2411613907042"/>
      <point x="28.37258300203048" y="412.61374439273465"/>
      <point x="35.0" y="412.61374439273465" type="curve" smooth="yes"/>
      <point x="113.0" y="412.61374439273465" type="line"/>
      <point x="101.9083369254969" y="405.1935926698836" type="line"/>
      <point x="143.3850180219631" y="505.64350811053293"/>
      <point x="259.1301926415467" y="571.7127701597078"/>
      <point x="424.0" y="571.7127701597078" type="curve" smooth="yes"/>
      <point x="473.0536783176875" y="571.7127701597078"/>
      <point x="521.0162441132697" y="566.6305833709177"/>
      <point x="563.9382126412463" y="555.7911494394865" type="curve" smooth="yes"/>
      <point x="569.2666596251912" y="554.4455133696506"/>
      <point x="573.0" y="549.6521541997672"/>
      <point x="573.0" y="544.1564209736039" type="curve" smooth="yes"/>
      <point x="573.0" y="433.84776310850236" type="line" smooth="yes"/>
      <point x="573.0" y="424.7664859354458"/>
      <point x="563.3033018166902" y="418.9761661587761"/>
      <point x="555.308455999404" y="423.28337354311435" type="curve" smooth="yes"/>
      <point x="514.9686812747051" y="445.016347455017"/>
      <point x="463.9049538192631" y="460.7386360737624"/>
      <point x="413.0" y="460.73863607376245" type="curve" smooth="yes"/>
      <point x="350.5717391588688" y="460.7386360737625"/>
      <point x="301.16990394442314" y="437.03607430953684"/>
      <point x="274.14871641617236" y="394.21034255432767" type="curve"/>
      <point x="264.0" y="412.61374439273465" type="line"/>
      <point x="478.0" y="412.61374439273465" type="line" smooth="yes"/>
      <point x="485.401486719821" y="412.61374439273465"/>
      <point x="491.0383497750477" y="405.9787645052039"/>
      <point x="489.8422784854971" y="398.67455892663486" type="curve" smooth="yes"/>
      <point x="478.8422784854971" y="331.4994147139128" type="line" smooth="yes"/>
      <point x="477.8922469948986" y="325.697732678678"/>
      <point x="472.87895180037185" y="321.4386001800126"/>
      <point x="467.0" y="321.4386001800126" type="curve" smooth="yes"/>
      <point x="242.0" y="321.4386001800126" type="line"/>
      <point x="253.83728060498746" y="331.46913632434325" type="line"/>
      <point x="252.0323053493928" y="320.62049925795156"/>
      <point x="252.0642306479394" y="308.43957894144677"/>
      <point x="253.86920590353407" y="296.3146316319501" type="curve"/>
      <point x="242.0" y="306.5477272147525" type="line"/>
      <point x="459.0" y="306.5477272147525" type="line" smooth="yes"/>
      <point x="466.401486719821" y="306.5477272147525"/>
      <point x="472.0383497750477" y="299.9127473272218"/>
      <point x="470.8422784854971" y="292.6085417486527" type="curve" smooth="yes"/>
      <point x="459.8422784854971" y="225.43339753593068" type="line" smooth="yes"/>
      <point x="458.89224699489864" y="219.63171550069603"/>
      <point x="453.8789518003717" y="215.37258300203047"/>
      <point x="448.0" y="215.37258300203047" type="curve" smooth="yes"/>
      <point x="264.0" y="215.37258300203047" type="line"/>
      <point x="274.29005406662793" y="233.54630046445732" type="line"/>
      <point x="300.3273367839061" y="190.148615270819"/>
      <point x="350.69650206937" y="166.54058453981608"/>
      <point x="413.0" y="166.54058453981608" type="curve" smooth="yes"/>
      <point x="463.9049538192631" y="166.54058453981608"/>
      <point x="514.9686812747051" y="182.2628731585614"/>
      <point x="555.308455999404" y="203.99584707046424" type="curve" smooth="yes"/>
      <point x="563.3033018166902" y="208.30305445480252"/>
      <point x="573.0" y="202.51273467813272"/>
      <point x="573.0" y="193.4314575050762" type="curve" smooth="yes"/>
      <point x="573.0" y="83.12279963997477" type="line" smooth="yes"/>
      <point x="573.0" y="77.62706641381136"/>
      <point x="569.2666596251913" y="72.83370724392802"/>
      <point x="563.9382126412463" y="71.48807117409211" type="curve" smooth="yes"/>
      <point x="521.0162441132697" y="60.648637242660755"/>
      <point x="473.0536783176875" y="55.56645045387073"/>
      <point x="424.0" y="55.566450453870715" type="curve" smooth="yes"/>
      <point x="258.093275614135" y="55.56645045387066"/>
      <point x="143.37333469168163" y="121.63800633357553"/>
      <point x="101.8966535952154" y="222.8211328358354" type="curve"/>
      <point x="113.0" y="215.37258300203047" type="line"/>
    </contour>
    <contour>
      <point x="35.0" y="239.37258300203047" type="line"/>
      <point x="113.0" y="239.37258300203047" type="line" smooth="yes"/>
      <point x="117.86959505287194" y="239.37258300203047"/>
      <point x="122.25636980372656" y="236.42976656181406"/>
      <point x="124.1033464047846" y="231.92403316822552" type="curve" smooth="yes"/>
      <point x="162.61837079747903" y="137.96592267476916"/>
      <point x="269.9399024292221" y="79.56645045387066"/>
      <point x="424.0" y="79.56645045387071" type="curve" smooth="yes"/>
      <point x="470.938240960231" y="79.56645045387073"/>
      <point x="516.9908265185517" y="84.38554420587386"/>
      <point x="558.0617873587537" y="94.75752810585743" type="curve"/>
      <point x="549.0" y="83.12279963997477" type="line"/>
      <point x="549.0" y="193.4314575050762" type="line"/>
      <point x="566.691544000596" y="182.86706793968816" type="line"/>
      <point x="523.0320436306885" y="159.34559839700006"/>
      <point x="468.09413141916883" y="142.54058453981608"/>
      <point x="413.0" y="142.54058453981608" type="curve" smooth="yes"/>
      <point x="341.32199721245456" y="142.54058453981608"/>
      <point x="283.66493217294317" y="171.27134134592032"/>
      <point x="253.7099459333721" y="221.19886553960362" type="curve" smooth="yes"/>
      <point x="248.91121151694293" y="229.19716427889085"/>
      <point x="254.67258692228626" y="239.37258300203047"/>
      <point x="264.0" y="239.37258300203047" type="curve" smooth="yes"/>
      <point x="448.0" y="239.37258300203047" type="line"/>
      <point x="436.1577215145029" y="229.31176846813025" type="line"/>
      <point x="447.1577215145029" y="296.4869126808523" type="line"/>
      <point x="459.0" y="282.5477272147525" type="line"/>
      <point x="242.0" y="282.5477272147525" type="line" smooth="yes"/>
      <point x="236.05498766646326" y="282.5477272147525"/>
      <point x="231.0061498091676" y="286.90060817373853"/>
      <point x="230.13079409646593" y="292.78082279755495" type="curve" smooth="yes"/>
      <point x="227.93572210896593" y="307.5262505293168"/>
      <point x="227.96764740751254" y="322.21478659147397"/>
      <point x="230.16271939501254" y="335.40806403568195" type="curve" smooth="yes"/>
      <point x="231.1256795739937" y="341.1958472525285"/>
      <point x="236.1326558928665" y="345.4386001800126"/>
      <point x="242.0" y="345.4386001800126" type="curve" smooth="yes"/>
      <point x="467.0" y="345.4386001800126" type="line"/>
      <point x="455.1577215145029" y="335.3777856461124" type="line"/>
      <point x="466.1577215145029" y="402.55292985883443" type="line"/>
      <point x="478.0" y="388.61374439273465" type="line"/>
      <point x="264.0" y="388.61374439273465" type="line" smooth="yes"/>
      <point x="254.55174078392974" y="388.61374439273465"/>
      <point x="248.8095335476668" y="399.0265042802763"/>
      <point x="253.85128358382764" y="407.0171462311416" type="curve" smooth="yes"/>
      <point x="284.82960004822024" y="456.1145099108473"/>
      <point x="341.42940678916204" y="484.7386360737625"/>
      <point x="413.0" y="484.73863607376245" type="curve" smooth="yes"/>
      <point x="468.09413141916883" y="484.7386360737624"/>
      <point x="523.0320436306885" y="467.9336222165785"/>
      <point x="566.691544000596" y="444.4121526738904" type="curve"/>
      <point x="549.0" y="433.84776310850236" type="line"/>
      <point x="549.0" y="544.1564209736039" type="line"/>
      <point x="558.0617873587537" y="532.5216925077212" type="line"/>
      <point x="516.9908265185517" y="542.8936764077049"/>
      <point x="470.938240960231" y="547.7127701597078"/>
      <point x="424.0" y="547.7127701597078" type="curve" smooth="yes"/>
      <point x="270.9027780390396" y="547.7127701597078"/>
      <point x="162.60668746719756" y="489.3111507359011"/>
      <point x="124.0916630745031" y="396.03389611558566" type="curve" smooth="yes"/>
      <point x="122.23743011336053" y="391.5432392156076"/>
      <point x="117.85841324585589" y="388.61374439273465"/>
      <point x="113.0" y="388.61374439273465" type="curve" smooth="yes"/>
      <point x="35.0" y="388.61374439273465" type="line"/>
      <point x="47.0" y="400.61374439273465" type="line"/>
      <point x="47.0" y="333.4386001800126" type="line"/>
      <point x="35.0" y="345.4386001800126" type="line"/>
      <point x="97.0" y="345.4386001800126" type="line" smooth="yes"/>
      <point x="104.37018834408137" y="345.4386001800126"/>
      <point x="109.99861519044924" y="338.856688344472"/>
      <point x="108.85454007888656" y="331.5758389183174" type="curve" smooth="yes"/>
      <point x="107.04866188419453" y="320.08330046114463"/>
      <point x="107.04866188419453" y="307.9030269336205"/>
      <point x="108.85454007888656" y="296.4104884764477" type="curve" smooth="yes"/>
      <point x="109.99861519044921" y="289.1296390502933"/>
      <point x="104.37018834408116" y="282.5477272147525"/>
      <point x="97.0" y="282.5477272147525" type="curve" smooth="yes"/>
      <point x="35.0" y="282.5477272147525" type="line"/>
      <point x="47.0" y="294.5477272147525" type="line"/>
      <point x="47.0" y="227.37258300203047" type="line"/>
    </contour>
  </outline>
</glyph>
